<svg width="136" height="136" viewBox="0 0 136 136" fill="none" xmlns="http://www.w3.org/2000/svg">
<rect x="1" y="1" width="134" height="134" rx="7" fill="#F55C7B"/>
<rect x="1" y="1" width="134" height="134" rx="7" stroke="white" stroke-width="2"/>
<path d="M109.121 72.887C108.996 72.887 108.871 72.9703 108.787 73.1786C107.95 75.5995 106.779 77.062 105.821 77.062C105.279 77.062 105.071 76.437 105.071 75.5203C105.071 73.137 106.487 68.0828 107.196 65.7453C107.279 65.4536 107.321 65.2036 107.321 64.9953C107.321 64.3245 106.946 63.987 106.029 63.987C105.071 63.987 103.983 64.362 102.979 66.162C102.646 64.5745 101.562 63.9036 100.054 63.9036C98.3455 63.9036 96.6705 65.0328 95.2955 66.8286C93.9164 68.6245 92.2872 69.212 91.0747 68.9161C91.9497 66.7911 92.283 65.1578 92.283 63.987C92.283 62.112 91.3663 60.9828 89.8663 60.9828C87.608 60.9828 86.3122 63.1536 86.3122 65.4078C86.3122 67.162 87.1038 68.9578 88.8622 69.837C87.3997 73.137 85.2705 76.1453 84.433 76.1453C83.3913 76.1453 83.058 71.0078 83.1413 67.3286C83.183 65.2453 83.3497 65.1203 83.3497 64.4911C83.3497 64.1161 83.0997 63.8661 82.1372 63.8661C79.9205 63.8661 79.2122 65.7411 79.1288 67.9161C79.0872 68.7495 78.9622 69.5411 78.7538 70.337C77.8372 73.637 75.9122 76.187 74.658 76.187C74.0747 76.187 73.908 75.6036 73.908 74.8495C73.908 72.4661 75.2413 69.462 75.2413 66.912C75.2413 65.037 74.408 63.862 72.8663 63.862C71.0247 63.862 68.6455 66.037 66.3497 70.087C67.0997 66.9953 67.3913 63.9911 65.1788 63.9911C64.6788 63.9911 64.2191 64.1161 63.7997 64.3661C63.6577 64.4319 63.5384 64.5382 63.4569 64.6717C63.3753 64.8052 63.3351 64.9598 63.3413 65.1161C63.5497 68.4161 60.6663 76.8953 57.9538 76.8953C57.4538 76.8953 57.2038 76.3536 57.2038 75.4786C57.2038 73.0953 58.6205 68.0411 59.3288 65.6995C59.4067 65.4426 59.4488 65.1762 59.4538 64.9078C59.4538 64.2828 59.0788 63.9495 58.1622 63.9495C57.2038 63.9495 56.1163 64.3245 55.1122 66.1161C54.7372 64.5328 53.6955 63.8661 52.1872 63.8661C49.7247 63.8661 47.008 66.4495 45.7955 69.837C44.1705 74.3495 40.9538 78.7328 36.5663 78.7328C32.5997 78.7328 30.508 75.4328 30.508 70.212C30.508 62.6536 36.0663 56.512 40.158 56.512C42.1205 56.512 43.0413 57.762 43.0413 59.687C43.0413 62.0245 41.7497 63.0703 41.7497 63.987C41.7497 64.237 41.958 64.5286 42.4163 64.5286C44.208 64.5286 46.2997 62.4453 46.2997 59.562C46.2997 56.6786 44.0413 54.6328 39.9497 54.6328C33.1413 54.6328 26.333 61.4411 26.333 70.2161C26.333 77.187 29.758 81.3661 35.6913 81.3661C39.7413 81.3661 43.2913 78.2328 45.1705 74.5578C45.3788 77.6078 46.758 79.1911 48.8872 79.1911C50.7663 79.1911 52.2705 78.0661 53.4413 76.1036C53.8997 78.1453 55.0663 79.1495 56.6163 79.1495C58.3663 79.1495 59.8747 78.0245 61.2497 75.9786C61.2497 77.6036 61.583 79.1495 63.008 79.1495C63.6747 79.1495 64.4663 78.9828 64.5913 78.3995C66.0955 72.2578 69.7747 67.2036 70.8997 67.2036C71.233 67.2036 71.3163 67.537 71.3163 67.912C71.3163 69.587 70.1497 73.012 70.1497 75.1828C70.1497 77.5661 71.1497 79.1078 73.2413 79.1078C75.5372 79.1078 77.8747 76.312 79.4205 72.1745C79.9205 76.0203 80.9663 79.1078 82.5955 79.1078C84.5997 79.1078 88.233 74.8495 90.408 70.337C91.2413 70.462 92.5372 70.4203 93.7914 69.5453C93.2497 70.8786 92.958 72.3412 92.958 73.762C92.958 77.9412 94.958 79.1078 96.6705 79.1078C98.5497 79.1078 100.054 77.9828 101.225 76.0203C101.6 77.7703 102.6 79.0661 104.4 79.0661C107.2 79.0661 109.662 76.187 109.662 73.8036C109.704 73.3036 109.412 72.887 109.121 72.887ZM50.6413 76.8536C49.5163 76.8536 49.058 75.7286 49.058 74.012C49.058 71.0495 51.0997 66.0786 53.233 66.0786C54.1497 66.0786 54.5247 67.162 54.5247 68.5411C54.5247 71.5495 52.608 76.8536 50.6413 76.8536ZM89.6122 67.9995C88.9455 67.2078 88.6955 66.0786 88.6955 65.1161C88.6955 63.9078 89.1538 62.9036 89.6538 62.9036C90.1538 62.9036 90.3622 63.4036 90.3622 64.1536C90.3205 65.3245 89.9038 67.1203 89.6122 67.9995ZM98.4247 76.8536C97.2997 76.8536 96.8413 75.5203 96.8413 74.012C96.8413 71.1328 98.883 66.0786 101.016 66.0786C101.933 66.0786 102.266 67.162 102.266 68.5411C102.308 71.5495 100.433 76.8536 98.4247 76.8536Z" fill="white"/>
</svg>
