<svg width="136" height="136" viewBox="0 0 136 136" fill="none" xmlns="http://www.w3.org/2000/svg">
<rect x="1" y="1" width="134" height="134" rx="7" fill="#E1CD97"/>
<rect x="1" y="1" width="134" height="134" rx="7" stroke="black" stroke-width="2"/>
<rect x="1" y="1" width="134" height="134" rx="7" fill="#F55C7B"/>
<rect x="1" y="1" width="134" height="134" rx="7" stroke="white" stroke-width="2"/>
<path d="M100.951 20.1885C99.3493 20.6377 97.5719 21.5361 96.3024 22.5127C95.6969 22.9814 91.1071 27.4541 86.1266 32.4541L77.0836 41.5166L75.9118 41.165C75.2672 40.9502 73.6657 40.6377 72.3376 40.4424L69.9352 40.1104L69.0172 38.8799C67.3376 36.6533 64.6422 34.8564 62.0446 34.251C60.6969 33.9385 57.5133 33.8799 56.361 34.1338L55.6188 34.3096L54.9157 33.2158C52.8454 29.9736 49.4079 27.5127 45.5993 26.5361C43.4899 26.0088 40.0719 25.9893 37.943 26.5361C33.568 27.6299 29.779 30.6572 27.7868 34.6416C26.4391 37.3564 26.0876 39.1143 26.1852 42.4736L26.2633 45.2471L25.1501 45.7549C22.9626 46.751 20.9899 49.0166 20.2672 51.3604C19.7985 52.8447 19.779 55.54 20.2086 57.0244C21.0485 59.915 23.4899 62.376 26.361 63.2744C27.4157 63.6064 28.2165 63.6455 33.9391 63.6455H40.3454L40.2477 67.2002C40.1501 71.1455 40.4235 73.333 41.2438 75.5791L41.7126 76.8291L34.7985 83.7822L27.8844 90.7158L23.861 101.146C19.8766 111.536 19.8571 111.575 19.9352 112.903C19.9938 113.978 20.111 114.368 20.5797 115.032C21.3805 116.165 22.5719 116.771 24.0368 116.771C25.0719 116.771 26.3024 116.341 35.4821 112.825L45.7751 108.899L50.8141 103.899L55.8336 98.8994V99.8955C55.8336 100.54 55.9899 101.185 56.3024 101.79L56.7516 102.708L56.3024 103.626C55.7165 104.778 55.6579 106.731 56.2047 107.884C56.654 108.841 57.6501 109.817 58.5876 110.208C59.1149 110.423 59.3883 110.716 59.6032 111.243C60.2282 112.845 62.2204 114.974 63.8219 115.794C66.4196 117.103 70.2477 117.103 72.8454 115.794C74.4469 114.974 76.4391 112.845 77.0641 111.243C77.279 110.716 77.5524 110.423 78.0797 110.208C79.5641 109.583 80.8141 107.864 80.8336 106.419V105.755L81.7711 106.673L82.7086 107.591L83.6657 106.595C85.2477 104.974 86.0485 104.466 87.0251 104.466C89.2321 104.466 90.1891 105.872 90.2086 109.095V110.521H94.8961H99.5836V109.095C99.6032 105.872 100.56 104.466 102.767 104.466C103.744 104.466 104.545 104.974 106.127 106.595L107.103 107.591L110.463 104.231L113.841 100.853L112.591 99.583C110.951 97.9033 110.716 97.5127 110.716 96.4971C110.716 94.3096 112.142 93.3525 115.365 93.333H116.771V88.665V84.0166L114.838 83.9189C112.65 83.8213 111.888 83.4893 111.166 82.3955C110.619 81.6143 110.56 80.1689 111.029 79.4658C111.205 79.1924 111.908 78.4111 112.591 77.708L113.841 76.4385L110.463 73.0596L107.103 69.7002L106.127 70.6963C104.545 72.3174 103.744 72.8252 102.767 72.8252C100.56 72.8252 99.6032 71.4189 99.5836 68.1768V66.7705H98.0602H96.5172L96.2829 64.8564C96.1657 63.8018 95.8532 62.2002 95.5993 61.3018L95.1501 59.6416L104.74 49.9736C114.759 39.876 115.111 39.4658 116.146 36.7314C116.615 35.54 116.654 35.1494 116.673 32.5908C116.673 30.1299 116.615 29.583 116.224 28.4697C114.974 24.8174 112.103 21.9072 108.412 20.5205C107.318 20.1104 106.693 20.0127 104.564 19.9736C102.709 19.915 101.732 19.9736 100.951 20.1885ZM108.138 24.0947C110.091 25.0127 111.654 26.5947 112.631 28.626C113.275 30.0127 113.353 30.3252 113.412 32.1025C113.529 35.2471 112.709 37.1611 110.228 39.6221L108.959 40.8916L102.377 34.29L95.7751 27.708L96.9469 26.5166C97.5915 25.8721 98.4899 25.0713 98.9196 24.7588C101.556 22.9424 105.15 22.6689 108.138 24.0947ZM44.7985 29.7979C47.3766 30.4229 49.9352 32.1221 51.5954 34.3291L52.5133 35.54L51.3415 36.4385C49.0758 38.1377 47.1813 41.1064 46.6344 43.8018C46.4196 44.9346 46.3415 45.0908 45.8532 45.1885C45.1696 45.3447 43.7438 46.3604 43.0407 47.2002C42.3766 47.9814 41.7711 49.5635 41.7711 50.4619V51.1455H43.4313C45.0133 51.1455 45.0915 51.126 45.0915 50.6963C45.0915 49.4658 46.5758 48.2158 48.0211 48.2158C49.4665 48.2158 50.9508 49.4658 50.9508 50.6963C50.9508 51.126 51.0094 51.1455 52.6305 51.1455H54.3297L54.2321 50.1885C54.0368 48.2939 52.6305 46.3213 50.7946 45.4619C50.2868 45.2275 49.8571 45.0127 49.8376 44.9932C49.7008 44.8955 50.4626 42.7275 50.9118 41.9658C52.611 39.0361 55.6188 37.2783 58.9391 37.2783C61.4586 37.2783 63.4118 38.04 65.2477 39.7783C67.1618 41.5752 68.1383 43.8213 68.1383 46.4189C68.1383 48.4697 68.0602 48.665 66.9469 49.3682C65.1696 50.54 63.8805 52.6299 63.7047 54.7002L63.5876 55.833H65.2868C66.9469 55.833 66.9665 55.833 66.9665 55.3447C66.9665 54.0947 68.1579 52.4346 69.5446 51.7119C70.443 51.2627 72.1618 51.2236 73.1774 51.6533C74.8376 52.3369 75.9508 53.9971 75.9508 55.833C75.9508 57.6689 74.8766 59.29 73.1188 60.0713C72.3766 60.4033 71.068 60.4229 51.1461 60.4814C29.154 60.54 28.0211 60.501 26.5172 59.7197C25.5211 59.2119 24.3297 58.0205 23.7633 56.9658C23.3922 56.2627 23.3141 55.833 23.3141 54.2705C23.3141 52.7275 23.3922 52.2783 23.7633 51.5947C24.4079 50.3643 25.2086 49.5244 26.3805 48.8799C27.318 48.3721 27.5915 48.3135 29.2711 48.3135C30.8336 48.3135 31.2633 48.3916 31.9665 48.7627C33.7438 49.7197 35.0524 51.5166 35.2672 53.3135L35.3844 54.2705H37.0055H38.6461V53.3916C38.6461 52.2783 38.0016 50.3447 37.2399 49.1533C35.9118 47.0439 33.4118 45.4033 30.9899 45.0127C29.7204 44.8174 29.7008 44.8174 29.5836 44.1143C29.3688 42.8057 29.4665 39.8955 29.7594 38.7432C31.4782 32.1611 38.1969 28.1572 44.7985 29.7979ZM99.9743 36.79L106.517 43.333L105.384 44.4463L104.271 45.5791L97.6891 38.9971L91.0876 32.3955L92.1618 31.3213C92.7477 30.7354 93.2751 30.2471 93.3336 30.2471C93.3922 30.2471 96.3805 33.1963 99.9743 36.79ZM91.3805 37.5713L94.0172 40.208L90.5211 43.7041L87.0446 47.1807L85.404 45.9502C84.486 45.2666 83.0407 44.29 82.1813 43.8018L80.5993 42.8838L84.5641 38.9189C86.7516 36.7314 88.5876 34.9346 88.6461 34.9346C88.7047 34.9346 89.9352 36.126 91.3805 37.5713ZM99.193 45.3838L101.83 48.0205L97.8063 52.0439L93.7829 56.0674L92.7672 54.3096C92.2008 53.3525 91.2243 51.9268 90.5993 51.126L89.4665 49.6807L92.904 46.2041C94.7985 44.3096 96.4001 42.7471 96.4586 42.7471C96.5172 42.7471 97.7477 43.9385 99.193 45.3838ZM75.0915 44.4072C82.8649 46.6533 89.3688 52.9033 91.9469 60.6377C93.4899 65.208 93.568 70.6377 92.1618 74.6611C91.1071 77.7471 89.8376 79.4463 84.8376 84.5439C80.6188 88.8408 79.0563 90.7549 77.7477 93.2939L76.9079 94.8955H73.3922H69.8961V90.3447C69.8961 85.2861 69.7985 84.8564 68.5094 83.626C67.4547 82.6299 66.654 82.3955 64.3297 82.3955C61.3024 82.3955 60.404 81.8682 60.7946 80.3252C61.0485 79.3096 61.4977 79.2705 70.6188 79.2705C78.3532 79.2705 79.0368 79.2314 79.7594 78.8994C81.4391 78.1182 82.3961 76.5557 82.3961 74.583C82.3961 73.1768 82.0251 72.2002 81.1657 71.2822C79.8766 69.915 79.7594 69.8955 72.2204 69.8955C67.6891 69.8955 65.2477 69.8174 64.818 69.6807C63.8805 69.3486 63.6461 68.5869 63.6461 65.9111V63.665L68.6852 63.6064L73.7047 63.5479L74.8766 62.9814C76.3805 62.2393 77.8649 60.7549 78.6071 59.251C79.1344 58.1572 79.1735 57.9229 79.1735 55.833C79.1735 53.7432 79.1344 53.5088 78.6071 52.415C77.4547 50.0713 75.0133 48.2939 72.6501 48.0791L71.4586 47.9619V46.2822C71.4586 45.3643 71.4001 44.3877 71.3219 44.1338C71.2047 43.665 71.2047 43.665 72.279 43.7822C72.8649 43.8604 74.1344 44.1338 75.0915 44.4072ZM60.5211 66.6143C60.5211 69.9736 60.7165 70.6572 61.9079 71.79C63.1969 73.001 63.3336 73.0205 70.7751 73.0205C76.2047 73.0205 77.6501 73.0791 78.1969 73.2939C78.9196 73.6064 79.2126 74.2314 78.9977 75.0908C78.7438 76.1064 78.2946 76.1455 69.2126 76.1455C60.0524 76.1455 60.0915 76.1455 58.7829 77.376C57.8258 78.2939 57.3961 79.3291 57.3961 80.833C57.3961 82.3369 57.8258 83.3721 58.7829 84.29C59.8376 85.2861 60.6383 85.5205 62.9235 85.5205C64.0368 85.5205 65.2477 85.6182 65.5993 85.7354C66.6344 86.1064 66.7711 86.7314 66.7711 91.0869V94.8955H63.2751H59.7594L58.9196 93.2939C57.611 90.7549 56.0876 88.8799 51.654 84.3682C46.5954 79.1924 45.443 77.5713 44.193 73.8018C43.6852 72.2393 43.6461 71.9463 43.6461 68.626C43.6266 66.6924 43.7047 64.7783 43.7829 64.3682L43.9391 63.6455H52.2204H60.5211V66.6143ZM97.0251 72.7275C98.1383 74.9541 100.111 76.1455 102.767 76.1455C104.213 76.1455 105.814 75.5986 106.673 74.8174C107.006 74.5244 107.084 74.5635 108.021 75.5205C108.978 76.458 109.017 76.5361 108.724 76.8682C108.548 77.0635 108.177 77.708 107.904 78.2939C106.927 80.3838 107.338 83.3135 108.861 85.0908C109.74 86.1064 111.654 87.083 112.806 87.083H113.646V88.6455V90.208H112.806C111.615 90.208 109.74 91.1846 108.841 92.2588C107.318 94.1338 106.927 96.9072 107.904 98.9971C108.177 99.583 108.548 100.228 108.724 100.423C109.017 100.755 108.978 100.833 108.021 101.771C107.084 102.728 107.006 102.767 106.673 102.474C106.478 102.298 105.834 101.927 105.248 101.653C103.158 100.677 100.228 101.087 98.4508 102.61C97.4352 103.489 96.4586 105.403 96.4586 106.556V107.396H94.8961H93.3336V106.556C93.3336 105.364 92.3571 103.489 91.2829 102.591C89.4079 101.067 86.6344 100.677 84.5446 101.653C83.9586 101.927 83.3141 102.298 83.1188 102.474C82.8063 102.767 82.7086 102.708 81.8102 101.829C80.8336 100.872 80.8336 100.872 80.8336 99.583C80.8336 98.6846 80.7165 98.0596 80.443 97.5322C80.2282 97.1025 80.0524 96.6533 80.0524 96.5166C80.0524 95.6572 83.5485 90.2471 83.9391 90.501C84.0368 90.54 84.154 90.9307 84.2321 91.3408C84.4274 92.6104 85.7946 95.0908 86.9274 96.2432C89.193 98.5283 91.6735 99.583 94.8376 99.583C97.9821 99.583 100.56 98.5479 102.67 96.4189C104.779 94.3096 105.834 91.7314 105.834 88.6455C105.834 86.4971 105.521 85.2471 104.525 83.333C102.884 80.208 98.9977 77.708 95.7165 77.708C94.779 77.708 94.6813 77.6689 94.7985 77.3564C95.404 75.8525 96.0876 73.4893 96.1852 72.5713C96.2633 71.9658 96.3415 71.458 96.361 71.458C96.3805 71.458 96.693 72.0244 97.0251 72.7275ZM46.7126 84.2119L48.2751 85.9307L42.6891 91.5361L37.0836 97.1416L34.4079 94.4463L31.7126 91.7705L37.5524 85.9307L43.3922 80.0908L44.2711 81.2822C44.7594 81.9463 45.8532 83.2744 46.7126 84.2119ZM98.0797 81.6729C99.5251 82.3369 101.205 83.9971 101.888 85.4619C102.357 86.4775 102.416 86.8291 102.416 88.6455C102.416 90.4619 102.357 90.8135 101.888 91.8291C101.205 93.2744 99.5251 94.9541 98.0797 95.6377C97.0641 96.1064 96.7126 96.165 94.8961 96.165C93.0797 96.165 92.7282 96.1064 91.7126 95.6377C90.2477 94.9541 88.5876 93.2744 87.9235 91.8291C87.5133 90.9307 87.3766 90.3057 87.318 88.9189L87.2399 87.1416L89.3297 84.876C90.4821 83.626 91.6149 82.3564 91.8493 82.0244C92.3961 81.2236 93.0797 81.0283 95.1891 81.0869C96.6149 81.126 97.1618 81.2432 98.0797 81.6729ZM52.3766 89.9932C53.1774 90.833 54.2516 92.1416 54.7399 92.8643L55.6383 94.2119L50.2672 99.583L44.8961 104.954L42.2204 102.259L39.5251 99.583L45.0915 94.0166C48.1579 90.9502 50.7165 88.4502 50.7751 88.4502C50.8532 88.4502 51.5563 89.1533 52.3766 89.9932ZM41.6149 106.829C41.4196 106.985 32.1422 110.521 31.9079 110.521C31.654 110.521 26.1461 105.013 26.1461 104.759C26.1461 104.642 26.9274 102.532 27.8649 100.071C28.8219 97.5908 29.6618 95.4033 29.7399 95.208C29.8571 94.876 30.8141 95.7549 35.8141 100.755C39.0954 104.036 41.693 106.751 41.6149 106.829ZM76.6344 98.2939C77.8258 98.8018 77.8258 100.364 76.6344 100.872C75.6383 101.282 61.029 101.282 60.0329 100.872C58.861 100.384 58.8415 98.8018 59.9938 98.3135C60.9313 97.9033 75.6579 97.9033 76.6344 98.2939ZM76.6344 104.544C77.8258 105.052 77.8258 106.614 76.6344 107.122C75.6383 107.532 61.029 107.532 60.0329 107.122C58.861 106.634 58.8415 105.052 59.9938 104.563C60.9313 104.153 75.6579 104.153 76.6344 104.544ZM26.4001 112.708C24.3883 113.489 23.8219 113.587 23.4508 113.216C23.0797 112.845 23.1579 112.317 23.9391 110.286L24.6813 108.372L26.4782 110.169L28.2946 111.985L26.4001 112.708ZM73.4313 110.892C73.0993 111.497 71.8297 112.493 70.7946 112.981C70.0329 113.333 69.4665 113.45 68.3336 113.45C67.2008 113.45 66.6344 113.333 65.8727 112.981C64.8376 112.493 63.568 111.497 63.236 110.892C63.0602 110.54 63.236 110.521 68.3336 110.521C73.4313 110.521 73.6071 110.54 73.4313 110.892Z" fill="white"/>
<path d="M92.8457 84.3291C91.1465 85.1104 90.209 86.6729 90.209 88.6846C90.2285 91.458 92.1035 93.333 94.8965 93.333C97.709 93.333 99.584 91.458 99.584 88.6455C99.584 86.6143 98.5488 84.9932 96.8105 84.2705C95.7949 83.8408 93.8223 83.8799 92.8457 84.3291ZM95.873 87.6689C96.0879 87.8838 96.2637 88.3135 96.2637 88.6455C96.2637 88.9775 96.0879 89.4072 95.873 89.6221C95.6582 89.8369 95.2285 90.0127 94.8965 90.0127C94.5645 90.0127 94.1348 89.8369 93.9199 89.6221C93.7051 89.4072 93.5293 88.9775 93.5293 88.6455C93.5293 88.3135 93.7051 87.8838 93.9199 87.6689C94.1348 87.4541 94.5645 87.2783 94.8965 87.2783C95.2285 87.2783 95.6582 87.4541 95.873 87.6689Z" fill="white"/>
</svg>
