<svg width="136" height="136" viewBox="0 0 136 136" fill="none" xmlns="http://www.w3.org/2000/svg">
<rect x="1" y="1" width="134" height="134" rx="7" fill="#F55C7B"/>
<rect x="1" y="1" width="134" height="134" rx="7" stroke="white" stroke-width="2"/>
<path d="M68 30.5H55.5C52.1848 30.5 49.0054 31.817 46.6612 34.1612C44.317 36.5054 43 39.6848 43 43C43 46.3152 44.317 49.4946 46.6612 51.8388C49.0054 54.183 52.1848 55.5 55.5 55.5H68M68 30.5V55.5M68 30.5H80.5C83.8152 30.5 86.9946 31.817 89.3388 34.1612C91.683 36.5054 93 39.6848 93 43C93 46.3152 91.683 49.4946 89.3388 51.8388C86.9946 54.183 83.8152 55.5 80.5 55.5H68" stroke="white" stroke-width="6.25" stroke-linecap="round" stroke-linejoin="round"/>
<path d="M55.5 80.5C52.1848 80.5 49.0054 81.817 46.6612 84.1612C44.317 86.5054 43 89.6848 43 93C43 96.3152 44.317 99.4946 46.6612 101.839C49.0054 104.183 52.1848 105.5 55.5 105.5C58.8152 105.5 61.9946 104.183 64.3388 101.839C66.683 99.4946 68 96.3152 68 93V80.5M55.5 80.5H68M55.5 80.5C52.1848 80.5 49.0054 79.183 46.6612 76.8388C44.317 74.4946 43 71.3152 43 68C43 64.6848 44.317 61.5054 46.6612 59.1612C49.0054 56.817 52.1848 55.5 55.5 55.5H68V80.5M68 68C68 64.6848 69.317 61.5054 71.6612 59.1612C74.0054 56.817 77.1848 55.5 80.5 55.5C83.8152 55.5 86.9946 56.817 89.3388 59.1612C91.683 61.5054 93 64.6848 93 68C93 71.3152 91.683 74.4946 89.3388 76.8388C86.9946 79.183 83.8152 80.5 80.5 80.5C77.1848 80.5 74.0054 79.183 71.6612 76.8388C69.317 74.4946 68 71.3152 68 68Z" stroke="white" stroke-width="6.25" stroke-linecap="round" stroke-linejoin="round"/>
</svg>
