<svg width="136" height="136" viewBox="0 0 136 136" fill="none" xmlns="http://www.w3.org/2000/svg">
<rect x="1" y="1" width="134" height="134" rx="7" fill="#F55C7B"/>
<rect x="1" y="1" width="134" height="134" rx="7" stroke="white" stroke-width="2"/>
<rect x="1" y="1" width="134" height="134" rx="7" fill="#F55C7B"/>
<rect x="1" y="1" width="134" height="134" rx="7" stroke="white" stroke-width="2"/>
<g clip-path="url(#clip0_301_974)">
<path d="M64.9922 18.293C61.9648 19.1523 59.0742 21.5352 57.8047 24.25C56.8867 26.1641 56.6523 27.2578 56.6523 29.3477C56.6523 32.6484 57.6289 34.9727 59.9922 37.3555C61.5742 38.957 63.3906 39.9922 65.4219 40.4609L66.4375 40.6953V43.1172V45.5391H47.9023C35.5391 45.5391 29.1719 45.5977 28.8203 45.7344C27.8047 46.125 27.7852 46.2227 27.7656 51.6328V56.6719H23.9766C20.3828 56.6719 20.168 56.6914 19.543 57.1211C19.1914 57.3555 18.6836 57.8633 18.4492 58.2148C18.0195 58.8398 18 59.0742 18 62.1406C18 65.8516 18.0781 66.0469 19.5039 66.0469C20.793 66.0469 20.9297 65.7539 20.9297 62.7656C20.9297 60.7148 20.9883 60.1484 21.2422 59.9141C21.4961 59.6406 22.5117 59.6016 29.3281 59.6016C36.1445 59.6016 37.1602 59.6406 37.4141 59.9141C37.6875 60.168 37.7266 61.1836 37.7266 68C37.7266 74.8164 37.6875 75.832 37.4141 76.0859C37.1602 76.3594 36.1445 76.3984 29.3281 76.3984C22.5117 76.3984 21.4961 76.3594 21.2422 76.0859C20.9883 75.8516 20.9297 75.2852 20.9297 73.1953C20.9297 70.207 20.8125 69.9531 19.4258 69.9531C18.0781 69.9531 18 70.1875 18 73.8984C18 76.9258 18.0195 77.1602 18.4492 77.7852C18.6836 78.1367 19.1914 78.6445 19.543 78.8789C20.168 79.3086 20.3828 79.3281 23.9766 79.3281H27.7656V83.1172V86.9258L23.9961 86.9844C20.3438 87.043 20.1875 87.0625 19.5039 87.5312C18.1758 88.4492 18 89.0352 18 92.5508C18 95.4609 18.0195 95.7148 18.4297 96.3203C19.4062 97.7266 19.5625 97.7852 23.8789 97.8438L27.7656 97.9023V102.473V107.023L23.9961 107.102C20.3438 107.16 20.1875 107.18 19.5039 107.648C18.1758 108.566 18 109.152 18 112.668C18 115.598 18.0195 115.832 18.4492 116.457C18.6836 116.809 19.1914 117.316 19.543 117.551L20.207 118H29.3281H38.4492L39.1133 117.551C40.5977 116.555 41.0078 115.031 40.793 111.418C40.6758 109.328 40.2656 108.41 39.1523 107.648C38.4688 107.18 38.3125 107.16 34.6602 107.102L30.8906 107.023V102.453V97.8828H34.4844C38.2148 97.8828 38.8594 97.7852 39.6406 97.043C40.6367 96.125 40.7539 95.6562 40.7539 92.5117C40.7539 89.8164 40.7148 89.5234 40.3047 88.8008C40.0508 88.3711 39.543 87.7852 39.1523 87.5312C38.4688 87.0625 38.3125 87.043 34.6602 86.9844L30.8906 86.9258V83.1172V79.3281H34.6797C38.2734 79.3281 38.4883 79.3086 39.0938 78.8984C39.9922 78.2734 40.4805 77.5703 40.6758 76.5742C40.8906 75.4609 40.8906 60.5391 40.6758 59.4258C40.4805 58.4297 39.9922 57.7266 39.0938 57.1016C38.4883 56.6914 38.2734 56.6719 34.6797 56.6719H30.8906V52.668V48.6641H48.6641H66.4375V51.1641V53.6445L64.875 53.9766C60.7344 54.8359 57.043 57.7266 55.1289 61.6328C54.0742 63.7617 53.6836 65.4805 53.6836 68C53.6836 70.5195 54.0742 72.2383 55.1289 74.3672C57.0625 78.293 60.7148 81.1641 64.9141 82.0234L66.4375 82.3555V84.6406V86.9453H62.8828C58.6445 86.9453 58.0195 87.1406 57.1016 88.6641C56.5938 89.5625 56.5742 89.6797 56.5742 92.5117C56.5742 95.6562 56.6914 96.125 57.6875 97.043C58.4688 97.7852 59.1133 97.8828 62.8438 97.8828H66.4375V102.453V107.023L62.668 107.102C59.0156 107.16 58.8594 107.18 58.1758 107.648C57.0625 108.41 56.6523 109.328 56.5352 111.418C56.3203 115.031 56.7305 116.555 58.2148 117.551L58.8789 118H68H77.1211L77.7852 117.551C79.2695 116.555 79.6797 115.031 79.4648 111.418C79.3477 109.328 78.9375 108.41 77.8242 107.648C77.1406 107.18 76.9844 107.16 73.332 107.102L69.5625 107.023V102.453V97.8828H73.1562C76.8867 97.8828 77.5312 97.7852 78.3125 97.043C79.3086 96.125 79.4258 95.6562 79.4258 92.5117C79.4258 89.8164 79.3867 89.5234 78.9766 88.8008C78.7227 88.3711 78.2148 87.7852 77.8242 87.5312C77.1406 87.0625 76.9844 87.043 73.332 86.9844L69.5625 86.9258V84.6406V82.3555L71.0859 82.0234C76.3203 80.9492 80.7148 76.6719 81.9844 71.418C82.4141 69.6211 82.4141 66.3789 82.0039 64.6211C80.7148 59.3477 76.3398 55.0508 71.1445 53.9766L69.5625 53.6445V51.1641V48.6641H87.3359H105.109V52.668V56.6719H101.32C97.7266 56.6719 97.5117 56.6914 96.8867 57.1211C95.4023 58.1172 95.0312 59.5039 95.1875 63.293C95.2656 65.6367 95.5195 66.0469 96.8086 66.0469C98.1562 66.0469 98.2734 65.7734 98.2734 62.7656C98.2734 60.7148 98.332 60.1484 98.5859 59.9141C98.8398 59.6406 99.8555 59.6016 106.672 59.6016C113.488 59.6016 114.504 59.6406 114.758 59.9141C115.031 60.168 115.07 61.1836 115.07 68C115.07 74.8164 115.031 75.832 114.758 76.0859C114.504 76.3594 113.488 76.3984 106.672 76.3984C99.8555 76.3984 98.8398 76.3594 98.5859 76.0859C98.332 75.8516 98.2734 75.2852 98.2734 73.1953C98.2734 70.207 98.1562 69.9531 96.7695 69.9531C95.5195 69.9531 95.2656 70.3828 95.1875 72.707C95.0312 76.4961 95.4023 77.8828 96.8867 78.8789C97.5117 79.3086 97.7266 79.3281 101.32 79.3281H105.109V83.1367V86.9453H101.555C97.3164 86.9453 96.6914 87.1406 95.7734 88.6641C95.2656 89.5625 95.2461 89.6797 95.2461 92.5117C95.2461 95.6562 95.3633 96.125 96.3594 97.043C97.1406 97.7852 97.7852 97.8828 101.516 97.8828H105.109V102.453V107.043L101.34 107.102C97.6875 107.16 97.5312 107.18 96.8477 107.648C95.7344 108.41 95.3242 109.328 95.207 111.418C94.9922 115.031 95.4023 116.555 96.8867 117.551L97.5508 118H106.672H115.793L116.457 117.551C116.809 117.316 117.316 116.809 117.551 116.457C117.98 115.832 118 115.598 118 112.668C118 109.152 117.824 108.566 116.496 107.648C115.812 107.18 115.656 107.16 112.004 107.102L108.234 107.023V102.473V97.9023L112.121 97.8438C116.438 97.7852 116.594 97.7266 117.57 96.3203C117.98 95.7148 118 95.4609 118 92.5508C118 89.0352 117.824 88.4492 116.496 87.5312C115.812 87.0625 115.656 87.043 112.004 86.9844L108.234 86.9258V83.1172V79.3281H112.023C115.617 79.3281 115.832 79.3086 116.457 78.8789C116.809 78.6445 117.316 78.1367 117.551 77.7852L118 77.1211V68V58.8789L117.551 58.2148C117.316 57.8633 116.809 57.3555 116.457 57.1211C115.832 56.6914 115.617 56.6719 112.023 56.6719H108.234V51.6328C108.215 46.2227 108.195 46.125 107.18 45.7344C106.828 45.5977 100.461 45.5391 88.0977 45.5391H69.5625V43.1172V40.6953L70.5977 40.4609C72.6094 39.9922 74.4258 38.957 76.0078 37.3555C78.5664 34.7773 79.4258 32.5117 79.2891 28.7422C79.1914 26.418 78.7812 24.8359 78.0391 24.0352C77.5703 23.5273 76.3203 23.5469 75.8125 24.0547C75.3242 24.543 75.3242 25.2656 75.832 26.7109C76.4375 28.4297 76.3008 31.125 75.5195 32.7461C74.7969 34.25 72.9414 36.125 71.4766 36.8086C69.3281 37.8242 66.6719 37.8242 64.5234 36.8086C63.0781 36.125 61.2031 34.2695 60.4609 32.7461C59.9336 31.6523 59.8945 31.418 59.8945 29.3281C59.8945 27.2383 59.9336 27.0039 60.4609 25.9102C61.2227 24.3672 63.0586 22.5312 64.582 21.8086C66.2227 21.0273 68.8984 20.8906 70.6367 21.4961C71.2617 21.7305 72.0234 21.9062 72.2969 21.9062C73 21.9062 73.6641 21.1641 73.6641 20.3633C73.6641 19.5234 73 18.8984 71.6914 18.4688C70.2852 18.0195 66.3203 17.9219 64.9922 18.293ZM71.5156 57.375C74.9336 58.5078 77.4531 61.0664 78.6641 64.6211C81.0469 71.6133 75.5 79.2109 68 79.2109C63.4297 79.2109 59.2891 76.3789 57.5898 72.082C56.4961 69.3281 56.4961 66.7305 57.5898 63.8789C58.9961 60.2852 62.375 57.5703 66.3398 56.8672C67.7461 56.6133 69.8359 56.8281 71.5156 57.375ZM37.4922 90.3047C37.7461 90.5586 37.8242 93.8789 37.6094 94.4453C37.5117 94.7188 36.5938 94.7578 29.3281 94.7578C22.0625 94.7578 21.1445 94.7188 21.0469 94.4453C20.8516 93.9375 20.9102 90.8516 21.125 90.4414C21.3203 90.0898 21.6328 90.0703 29.2891 90.0703C35.2266 90.0703 37.3164 90.1289 37.4922 90.3047ZM76.1641 90.3047C76.418 90.5586 76.4961 93.8789 76.2812 94.4453C76.1836 94.7188 75.2656 94.7578 68 94.7578C60.7344 94.7578 59.8164 94.7188 59.7188 94.4453C59.5039 93.8789 59.582 90.5586 59.8359 90.3047C60.168 89.9727 75.832 89.9727 76.1641 90.3047ZM114.875 90.4414C115.09 90.8516 115.148 93.9375 114.953 94.4453C114.855 94.7188 113.938 94.7578 106.672 94.7578C99.4062 94.7578 98.4883 94.7188 98.3906 94.4453C98.1758 93.8789 98.2539 90.5586 98.5078 90.3047C98.6836 90.1289 100.773 90.0703 106.711 90.0703C114.367 90.0703 114.68 90.0898 114.875 90.4414ZM37.4922 110.422C37.8633 110.793 37.8047 114.367 37.4141 114.758C37.1602 115.031 36.1445 115.07 29.3281 115.07C22.5117 115.07 21.4961 115.031 21.2422 114.758C21.0078 114.523 20.9297 114.035 20.9297 112.707C20.9297 109.914 20.0312 110.188 29.2891 110.188C35.2266 110.188 37.3164 110.246 37.4922 110.422ZM76.2031 110.559C76.3008 110.773 76.3984 111.73 76.3984 112.707C76.3984 114.035 76.3203 114.523 76.0859 114.758C75.832 115.031 74.8164 115.07 68 115.07C61.1836 115.07 60.168 115.031 59.9141 114.758C59.6797 114.523 59.6016 114.035 59.6016 112.707C59.6016 109.914 58.7031 110.188 68 110.188C75.6953 110.188 76.0078 110.207 76.2031 110.559ZM114.875 110.559C114.973 110.773 115.07 111.73 115.07 112.707C115.07 114.035 114.992 114.523 114.758 114.758C114.504 115.031 113.488 115.07 106.672 115.07C99.8555 115.07 98.8398 115.031 98.5859 114.758C98.1953 114.367 98.1367 110.793 98.5078 110.422C98.6836 110.246 100.773 110.188 106.711 110.188C114.367 110.188 114.68 110.207 114.875 110.559Z" fill="white"/>
<path d="M65.9306 60.0509C63.6845 61.1251 62.3954 63.9767 63.6063 65.1681C64.5243 66.1056 65.8134 65.6759 66.204 64.3087C66.6727 62.7462 68.1376 62.2579 69.1923 63.2931C70.3641 64.4845 69.4657 66.4376 67.747 66.4376C67.4931 66.4376 67.1024 66.6329 66.8681 66.8868C66.5165 67.2579 66.4384 67.5704 66.4384 68.6056C66.4384 70.0509 66.7509 70.6368 67.5907 70.8321C68.3915 71.0079 69.3095 70.5001 69.4657 69.8165C69.5438 69.4259 69.8759 69.0938 70.5985 68.6837C73.7821 66.8282 73.6063 61.8477 70.2665 60.1485C69.7782 59.8946 68.9579 59.6993 68.1962 59.6602C67.1415 59.6017 66.7509 59.6602 65.9306 60.0509Z" fill="white"/>
<path d="M66.9254 73.7617C65.9489 74.7188 66.6325 76.3984 67.9996 76.3984C68.8004 76.3984 69.5621 75.6367 69.5621 74.8359C69.5621 74.0352 68.8004 73.2734 67.9996 73.2734C67.6286 73.2734 67.2184 73.4492 66.9254 73.7617Z" fill="white"/>
</g>
<defs>
<clipPath id="clip0_301_974">
<rect width="100" height="100" fill="white" transform="translate(18 18)"/>
</clipPath>
</defs>
</svg>
