<svg width="136" height="136" viewBox="0 0 136 136" fill="none" xmlns="http://www.w3.org/2000/svg">
<rect x="1" y="1" width="134" height="134" rx="7" fill="#F55C7B"/>
<rect x="1" y="1" width="134" height="134" rx="7" stroke="white" stroke-width="2"/>
<path d="M101.681 74.7774C101.681 93.6316 86.3972 108.917 67.541 108.917C48.6847 108.917 33.4014 93.6316 33.4014 74.7774C33.4014 69.4316 34.6347 64.3545 36.8368 59.8587C36.8368 59.8378 36.8555 59.8003 36.8555 59.7816C39.3055 52.4087 55.5764 31.4482 76.4576 27.667C75.4534 32.6462 71.8826 37.567 85.2201 45.5774C95.0805 51.5774 101.681 62.4066 101.681 74.7774Z" stroke="white" stroke-width="4.16667" stroke-linecap="round" stroke-linejoin="round"/>
<path d="M34.4629 66.3622C41.8733 70.7434 53.165 70.7809 63.7212 65.6288C74.0275 60.6101 80.8775 52.0038 82.2483 43.6455M92.8671 51.8976C95.8462 78.5747 68.7462 111.179 38.0504 91.983" stroke="white" stroke-width="4.16667" stroke-linecap="round" stroke-linejoin="round"/>
</svg>
