<svg width="136" height="136" viewBox="0 0 136 136" fill="none" xmlns="http://www.w3.org/2000/svg">
<rect x="1" y="1" width="134" height="134" rx="7" fill="#F55C7B"/>
<rect x="1" y="1" width="134" height="134" rx="7" stroke="white" stroke-width="2"/>
<g clip-path="url(#clip0_301_1047)">
<path d="M36.5778 35.5333C39.6861 38.0583 40.8528 37.8666 46.6945 37.4749L101.757 34.1708C102.924 34.1708 101.953 33.0041 101.565 32.8124L92.4153 26.1999C90.6653 24.8416 88.3278 23.2833 83.8528 23.6708L30.5403 27.5624C28.5986 27.7541 28.207 28.7291 28.982 29.5041L36.5778 35.5333ZM39.882 48.3666V106.3C39.882 109.412 41.4361 110.579 44.9403 110.383L105.453 106.883C108.957 106.692 109.349 104.55 109.349 102.021V44.4749C109.349 41.9499 108.378 40.5874 106.232 40.7791L42.9945 44.4749C40.6611 44.6708 39.882 45.8416 39.882 48.3666ZM99.6195 51.4708C100.007 53.2208 99.6195 54.9708 97.8695 55.1708L94.9528 55.7541V98.5208C92.4195 99.8833 90.0861 100.662 88.1403 100.662C85.0236 100.662 84.2445 99.6874 81.9111 96.7749L62.8403 66.8333V95.7999L68.8736 97.1666C68.8736 97.1666 68.8736 100.667 64.007 100.667L50.582 101.442C50.1945 100.667 50.582 98.7208 51.9445 98.3333L55.4445 97.3624V59.0583L50.5903 58.6666C50.1986 56.9166 51.1736 54.3916 53.8945 54.1958L68.2945 53.2249L88.1445 83.5541V56.7208L83.082 56.1416C82.6945 53.9999 84.2486 52.4458 86.1945 52.2541L99.6195 51.4708ZM26.0653 22.3124L81.5236 18.2291C88.332 17.6458 90.0861 18.0333 94.3653 21.1458L112.069 33.5874C114.986 35.7249 115.961 36.3083 115.961 38.6416V106.883C115.961 111.158 114.407 113.692 108.961 114.075L44.5528 117.967C40.4695 118.162 38.5195 117.579 36.3778 114.854L23.3403 97.9374C21.007 94.8249 20.0361 92.4958 20.0361 89.7708V29.1124C20.0361 25.6166 21.5945 22.6958 26.0653 22.3124Z" fill="white"/>
</g>
<defs>
<clipPath id="clip0_301_1047">
<rect width="100" height="100" fill="white" transform="translate(18 18)"/>
</clipPath>
</defs>
</svg>
