<svg width="136" height="136" viewBox="0 0 136 136" fill="none" xmlns="http://www.w3.org/2000/svg">
<rect x="1" y="1" width="134" height="134" rx="7" fill="#F55C7B"/>
<rect x="1" y="1" width="134" height="134" rx="7" stroke="white" stroke-width="2"/>
<g clip-path="url(#clip0_301_1005)">
<path d="M85.0508 18.2734C84.6016 18.4297 83.9375 18.7227 83.5664 18.957C82.5703 19.5625 81.125 21.2031 80.6367 22.2578C80.207 23.1562 80.207 23.3125 80.1484 35.3242L80.0898 47.4922H78C76.75 47.4922 75.4414 47.6094 74.7578 47.7852C71.9648 48.5078 69.1328 50.6953 67.8438 53.0977C66.4766 55.6758 66.5547 54.8945 66.4375 67.0234C66.3008 79.4258 66.3398 79.0938 64.8164 81.3203C63.8594 82.7266 62.082 84.0352 60.5781 84.4844C60.0312 84.6406 58.8594 84.8359 57.9414 84.9141L56.3008 85.0508L56.2422 72.668L56.1836 60.2852L55.6172 59.1523C54.9336 57.8242 53.3125 56.2227 52.043 55.6367C51.1055 55.207 51.1055 55.207 37.1406 55.207H23.1758L22.082 55.7539C20.7734 56.3789 19.1328 58.0586 18.5273 59.3477L18.0977 60.2852V86.5547V112.824L18.5273 113.762C19.1328 115.051 20.7734 116.73 22.082 117.355C23 117.805 23.4883 117.902 25.1484 117.961C27.0039 118.039 27.1406 118.02 27.5508 117.59C28.0586 117.043 28.0781 116.066 27.5898 115.52C27.3164 115.227 26.8672 115.109 25.7344 115.012C24.1328 114.875 23.3125 114.543 22.4336 113.723C21.4375 112.805 21.125 111.945 21.125 110.09V108.43H37.1406H53.1562V110.09C53.1562 111.945 52.8438 112.805 51.8477 113.723C50.4805 115.012 50.793 114.973 41.2031 115.031L32.4727 115.09L32.0625 115.598C31.5547 116.242 31.5742 116.828 32.082 117.492L32.4922 118.02L41.8086 117.961L51.1055 117.902L52.082 117.434C53.4297 116.77 54.9336 115.285 55.6172 113.957L56.1836 112.824L56.2422 100.363L56.3008 87.9219H58.0977C59.0938 87.9219 60.4219 87.7852 61.0469 87.6289C63.9375 86.8672 66.6914 84.6992 68.0586 82.1211C69.4453 79.4844 69.4258 79.6602 69.543 67.5117L69.6602 56.5742L70.2852 55.2852C71.8672 52.1016 74.8555 50.4414 79.0742 50.4219H80.0898L80.1484 63.2539L80.207 76.1055L80.7539 77.1992C81.3789 78.5078 83.0586 80.1484 84.3477 80.7539C85.2852 81.1836 85.2852 81.1836 99.0547 81.1836H112.824L113.957 80.6172C115.285 79.9336 116.77 78.4297 117.434 77.082C117.902 76.125 117.902 76.0078 117.961 70.1289L118.02 64.1328L117.492 63.7227C116.906 63.2539 116.105 63.1953 115.617 63.5859C115.07 63.9961 114.875 64.7969 114.875 66.6523V68.3906H99.0547H83.2344V59.4062V50.4219H89.2305H95.207L93.7227 51.9648C92.4922 53.2148 92.2188 53.6055 92.2188 54.1133C92.2188 54.9531 92.9609 55.6953 93.8008 55.6953C94.3477 55.6953 94.8164 55.3242 97.4336 52.7266C101.457 48.7227 101.457 49.1914 97.4336 45.1875C94.8164 42.5898 94.3477 42.2188 93.8008 42.2188C92.9609 42.2188 92.2188 42.9609 92.2188 43.8008C92.2188 44.3086 92.4922 44.6992 93.7227 45.9492L95.207 47.4922H89.2305H83.2344V39.875V32.2578H99.0547H114.875V45.1289C114.875 53.5664 114.953 58.1953 115.07 58.5469C115.48 59.6211 116.574 59.9141 117.492 59.1914L118 58.7812L117.961 40.9883L117.902 23.1758L117.336 22.043C116.652 20.7148 115.031 19.1133 113.762 18.5273C112.844 18.1172 112.59 18.0977 104.797 18.0391L96.75 17.9805L96.3398 18.5078C95.832 19.1719 95.8125 19.7578 96.3203 20.4023L96.7109 20.9102L104.191 20.9688C111.398 21.0273 111.672 21.0469 112.434 21.457C112.863 21.6719 113.449 22.1211 113.723 22.4336C114.738 23.5078 114.875 24.0352 114.875 26.6914V29.1328H99.0547H83.2344V26.6914C83.2344 24.0352 83.3711 23.5078 84.3867 22.4336C85.3828 21.3398 86.2227 21.0664 88.957 20.9688C91.1641 20.8906 91.5156 20.832 91.8477 20.4805C92.3359 19.9531 92.3164 18.9766 91.8281 18.4297C91.4375 18.0195 91.2617 18 88.6445 18.0195C86.9453 18.0195 85.5586 18.1172 85.0508 18.2734ZM50.7148 58.5664C51.1445 58.7812 51.7305 59.2305 52.0039 59.543C53 60.5977 53.1562 61.1641 53.1562 63.7031V66.0469H37.1406H21.125V63.7031C21.125 61.1641 21.2812 60.5977 22.2773 59.543C22.8828 58.8789 23.7227 58.4102 24.6406 58.2148C25.0117 58.1367 30.8711 58.0977 37.6289 58.0977C49.8359 58.1367 49.9336 58.1367 50.7148 58.5664ZM53.1562 77.082V84.9922L49.5039 84.9727H45.832L45.2656 83.8008C44.6016 82.375 43.6055 81.5938 42.1016 81.2812C40.8516 81.0078 40.0117 81.1641 39.4844 81.7305C38.6836 82.5703 39.3281 84.2109 40.4414 84.2109C42.3164 84.2109 43.2344 85.6367 42.5898 87.5312C42.2188 88.5664 41.6133 88.7031 37.082 88.7031C32.9609 88.7031 32.0234 88.5664 31.6719 87.9219C31.418 87.4531 31.418 85.4609 31.6719 84.9922C31.9062 84.5625 32.8633 84.2109 33.8398 84.2109C34.7969 84.2109 35.3828 83.6641 35.3828 82.7852C35.3828 81.3789 34.2891 80.8711 32.1406 81.2617C30.6953 81.5352 29.6406 82.2773 28.918 83.5273C28.4102 84.4258 28.3516 84.6602 28.3516 86.4375C28.3516 88.1562 28.4102 88.4492 28.8789 89.3281C29.5234 90.5195 30.7148 91.3789 32.082 91.6328C33.4102 91.8867 40.6953 91.8867 42.043 91.6328C43.5664 91.3398 44.543 90.5781 45.2461 89.1523L45.832 87.9414H49.5039L53.1562 87.9219V96.6133V105.305H37.1406H21.125V87.2383V69.1719H37.1406H53.1562V77.082ZM114.875 73.2734C114.875 75.6758 114.25 76.8477 112.434 77.8242C111.652 78.2539 111.594 78.2539 99.0547 78.2539C87.1406 78.2539 86.418 78.2344 85.7734 77.8828C83.8789 76.8867 83.2344 75.7148 83.2344 73.2734V71.5156H99.0547H114.875V73.2734Z" fill="white"/>
<path d="M31.4561 60.4023C30.9287 60.5977 30.499 61.3008 30.499 61.9258C30.499 62.1211 30.6748 62.5117 30.9092 62.8047L31.2998 63.3125H37.042H42.7842L43.1748 62.8047C43.917 61.8672 43.6436 60.7734 42.5889 60.4023C41.8076 60.1289 32.1787 60.1289 31.4561 60.4023Z" fill="white"/>
<path d="M92.9019 23.6641C92.3941 24.2305 92.4136 25.3242 92.9605 25.8711C93.3902 26.3008 93.4683 26.3008 98.9761 26.3008H104.562L105.031 25.7539C105.597 25.0898 105.636 24.4648 105.089 23.7812L104.699 23.2734H98.9761C93.4488 23.2734 93.2339 23.293 92.9019 23.6641Z" fill="white"/>
</g>
<defs>
<clipPath id="clip0_301_1005">
<rect width="100" height="100" fill="white" transform="translate(18 18)"/>
</clipPath>
</defs>
</svg>
