<svg width="136" height="136" viewBox="0 0 136 136" fill="none" xmlns="http://www.w3.org/2000/svg">
<rect x="1" y="1" width="134" height="134" rx="7" fill="#F55C7B"/>
<rect x="1" y="1" width="134" height="134" rx="7" stroke="white" stroke-width="2"/>
<path d="M23.7626 37.1211C23.3329 37.3164 22.7079 37.7852 22.3564 38.1367C21.0478 39.5234 21.1259 37.8633 21.1259 63.3125C21.1259 88.7617 21.0478 87.1016 22.3564 88.4883C23.7235 89.9141 23.1962 89.875 36.1064 89.875H47.6689L47.3759 90.9102C46.9267 92.375 46.204 93.625 45.0126 94.9531L43.9384 96.125H42.2392C40.4032 96.125 40.0517 96.2812 39.8173 97.2578C39.6806 97.8633 40.0126 98.8203 40.4618 99.0547C40.6962 99.1719 44.7001 99.25 50.8915 99.25C60.7157 99.25 60.9892 99.2305 61.3603 98.8594C61.8876 98.332 61.8876 97.043 61.3603 96.5156C60.9892 96.1445 60.7157 96.125 54.7196 96.125H48.4501L49.0751 95.2266C49.8759 94.0742 50.579 92.2773 50.7743 90.9883L50.911 89.9727L56.0087 89.9141C60.872 89.875 61.1259 89.8555 61.4774 89.4648C61.9657 88.9375 61.9657 87.6875 61.4774 87.1602C61.1064 86.75 61.0868 86.75 43.5087 86.75C27.1415 86.75 25.872 86.7305 25.2275 86.3984C24.8368 86.2031 24.5048 85.8711 24.4267 85.5781C24.3485 85.3047 24.29 83.3516 24.2704 81.2227L24.2509 77.375H42.6689C61.0868 77.375 61.1064 77.375 61.4774 76.9648C61.9657 76.4375 61.9657 75.1875 61.4774 74.6602C61.1064 74.25 61.0868 74.25 42.6689 74.25H24.2509L24.29 57.5508L24.3485 40.8711L24.7978 40.4219L25.247 39.9727H55.4814C84.7392 39.9727 85.7548 39.9922 86.1454 40.3438C86.3603 40.5391 86.5946 41.0664 86.6728 41.5547C86.829 42.6289 87.2978 43.0586 88.3134 43.0586C89.4853 43.0586 89.8759 42.6094 89.8759 41.2617C89.8759 39.9531 89.4071 38.8398 88.4892 37.9805C87.0829 36.6523 89.6025 36.75 55.4618 36.75C25.7548 36.75 24.5048 36.7695 23.7626 37.1211Z" fill="white"/>
<path d="M68.6454 46.1249C67.5126 46.3593 66.8095 46.7694 66.0087 47.6483C64.7001 49.0937 64.7782 47.6483 64.7782 72.6874C64.7782 97.746 64.7001 96.2812 66.0282 97.746C67.415 99.289 66.9853 99.2499 78.704 99.2499C88.8407 99.2499 89.0946 99.2499 89.4853 98.8593C89.7392 98.6054 89.8759 98.2148 89.8759 97.6874C89.8759 97.1601 89.7392 96.7694 89.4853 96.5155C89.1142 96.1444 88.8407 96.1249 79.3876 96.1249C70.5204 96.1249 69.6025 96.0858 68.9775 95.7733C68.5868 95.578 68.2548 95.246 68.1767 94.953C68.0985 94.6796 68.04 92.7265 68.0204 90.5976L68.0009 86.7499H78.5478C88.8407 86.7499 89.0946 86.7499 89.4853 86.3593C89.7392 86.1054 89.8759 85.7148 89.8759 85.1874C89.8759 84.6601 89.7392 84.2694 89.4853 84.0155C89.0946 83.6249 88.8407 83.6249 78.5478 83.6249H68.0009V69.5624V55.4999H83.6259H99.2509V58.2343C99.2509 60.7147 99.29 61.0077 99.6415 61.3593C100.149 61.8671 101.38 61.8866 102.005 61.3788L102.474 61.0077V55.4608C102.474 51.2812 102.415 49.7577 102.2 49.1718C101.849 48.1366 100.696 46.9257 99.6415 46.4374C98.7821 46.0272 98.5282 46.0272 84.1142 45.9882C76.0673 45.9882 69.0946 46.0468 68.6454 46.1249ZM98.665 49.7577C98.9384 50.0312 99.1142 50.5194 99.1923 51.2616L99.3095 52.3749H83.6259H67.9423L68.0595 51.2812C68.1767 50.1288 68.5478 49.5233 69.2509 49.3866C69.4657 49.328 76.1064 49.3085 83.9579 49.328C98.1767 49.3476 98.2743 49.3476 98.665 49.7577Z" fill="white"/>
<path d="M28.1563 49.3084C27.5117 49.6209 27.1992 50.5974 27.1992 52.2771C27.1797 53.9373 27.4531 55.031 27.9609 55.3045C28.5859 55.6365 29.6797 55.5388 30.1094 55.1092C30.4609 54.7576 30.5 54.4646 30.5 52.492C30.5 51.2615 30.4414 50.1091 30.3828 49.9334C30.2461 49.6013 29.3281 49.0545 28.8984 49.0545C28.7617 49.0545 28.4297 49.1716 28.1563 49.3084Z" fill="white"/>
<path d="M28.1172 58.7224C27.3164 59.1716 27.1797 60.031 27.1797 64.8748C27.1797 69.4451 27.3359 70.5974 27.9609 70.9295C28.5859 71.2615 29.6797 71.1638 30.1094 70.7342C30.4805 70.3631 30.5 70.0896 30.5 64.992C30.5 62.0427 30.4414 59.4841 30.3828 59.3084C30.2461 58.9763 29.3086 58.4295 28.8984 58.4295C28.7617 58.449 28.4102 58.5662 28.1172 58.7224Z" fill="white"/>
<path d="M71.8679 58.7422C71.1257 59.1328 70.8523 60.2461 70.989 62.4141C71.1062 64.4453 71.3991 64.875 72.7077 64.875C74.0359 64.875 74.2507 64.4648 74.2507 61.8672C74.2507 60.6367 74.1921 59.4844 74.1335 59.3086C73.9968 58.9766 73.0593 58.4297 72.6491 58.4297C72.5124 58.4492 72.1609 58.5664 71.8679 58.7422Z" fill="white"/>
<path d="M95.6371 65.2461C95.2074 65.4414 94.5824 65.9102 94.2309 66.2617C92.9418 67.6094 93.0004 66.9648 93.0004 82.1016C93.0004 97.4336 92.9418 96.6328 94.3871 98.0195C95.6762 99.25 95.7348 99.25 103.977 99.25C112.317 99.25 112.336 99.2305 113.645 97.8633C114.934 96.5156 114.875 97.1406 114.875 82.0625C114.875 66.9844 114.934 67.6094 113.645 66.2617C112.336 64.8945 112.317 64.875 103.938 64.875C97.0238 64.875 96.3598 64.9141 95.6371 65.2461ZM111.184 68.5664C111.438 68.8789 111.555 69.3281 111.555 70.0703V71.125H103.938H96.3207V69.9922C96.3207 68.7812 96.5746 68.3516 97.3949 68.1367C97.6098 68.0781 100.715 68.0586 104.289 68.0586L110.813 68.0977L111.184 68.5664ZM111.555 81.9648V89.6797H103.938H96.3207V81.9648V74.25H103.938H111.555V81.9648ZM111.555 93.9961C111.555 94.543 111.477 95.1484 111.36 95.3438C110.989 96.0273 110.129 96.125 103.86 96.125C96.4184 96.125 96.4574 96.125 96.3598 94.2109L96.3012 93H103.938H111.555V93.9961Z" fill="white"/>
<path d="M71.9854 68.0779C71.0283 68.4881 70.9307 69.0935 70.9307 74.1326C70.9307 78.8201 71.0869 79.9724 71.7119 80.3045C72.3369 80.6365 73.4307 80.5388 73.8604 80.1092C74.2314 79.7381 74.251 79.4646 74.251 74.2498C74.251 69.0349 74.2314 68.7615 73.8604 68.3904C73.6455 68.1756 73.3916 67.9998 73.2939 67.9998C73.1963 67.9998 73.001 67.9607 72.8447 67.9021C72.708 67.8631 72.3174 67.9412 71.9854 68.0779Z" fill="white"/>
<path d="M52.5908 81.0078C52.3564 81.3008 52.1807 81.7695 52.1807 82.0625C52.1807 82.3555 52.3564 82.8242 52.5908 83.1172C52.9814 83.625 53.0205 83.625 55.4229 83.625C58.2549 83.625 58.626 83.4492 58.626 82.0625C58.626 80.6758 58.2549 80.5 55.4229 80.5C53.0205 80.5 52.9814 80.5 52.5908 81.0078Z" fill="white"/>
<path d="M81.5742 89.875C80.793 90.1289 80.5 90.5781 80.5 91.4766C80.5 92.7852 80.9102 93 83.5469 93C84.7773 93 85.9688 92.9219 86.1641 92.8047C86.6133 92.5703 86.9258 91.6523 86.8086 90.9883C86.6133 90.0313 86.125 89.7969 84.0547 89.7383C83.0195 89.7188 81.9063 89.7773 81.5742 89.875Z" fill="white"/>
</svg>
