<svg width="136" height="136" viewBox="0 0 136 136" fill="none" xmlns="http://www.w3.org/2000/svg">
<rect x="1" y="1" width="134" height="134" rx="7" fill="#F55C7B"/>
<rect x="1" y="1" width="134" height="134" rx="7" stroke="white" stroke-width="2"/>
<g clip-path="url(#clip0_301_937)">
<path d="M48.9564 18.1172C48.5267 18.1758 47.2767 18.3906 46.1635 18.6055C37.4135 20.3437 29.5619 25.4414 24.3861 32.7266C21.9447 36.1836 19.7963 40.9883 18.8002 45.207C17.9799 48.6641 17.765 54.0351 18.3119 57.8828C19.3471 65.5195 22.8236 72.4336 28.3705 77.9219C29.4838 79.0352 30.6556 80.0898 30.9681 80.2461C32.2181 80.9102 33.7611 79.9141 33.5463 78.5664C33.4681 78.0391 32.9603 77.4336 31.1244 75.6172C26.8275 71.3789 24.015 66.6523 22.4916 61.125C20.3236 53.1953 21.5346 44.1328 25.7338 37.0234C32.7455 25.1484 46.476 19.1328 59.7963 22.1016C70.597 24.5039 79.5033 32.5898 82.9408 43.0586C85.4994 50.8711 84.9916 58.9961 81.476 66.3984C78.3119 73.0586 73.39 78.0391 66.7299 81.3008C62.1595 83.5273 57.5697 84.582 52.3158 84.6016C50.7533 84.6016 50.558 84.6406 50.1283 85.0898C49.4838 85.7148 49.4838 86.7305 50.1088 87.4727C50.558 87.9805 50.6947 88.0195 52.433 88.0781C58.1752 88.293 65.1478 86.4961 70.4994 83.4102L72.5502 82.2187L77.5502 87.1992C82.7845 92.4141 83.2142 92.7266 84.2494 92.2187C84.5033 92.082 86.4174 90.2656 88.5267 88.1953C91.9838 84.7578 92.3939 84.4062 92.9994 84.4062C93.6244 84.4062 94.3861 85.1094 104.074 94.8164C113.781 104.504 114.484 105.266 114.484 105.891C114.484 106.496 114.132 106.906 110.538 110.52C106.906 114.172 106.535 114.484 105.91 114.484C105.265 114.484 104.757 114.035 98.3705 107.668C94.6205 103.898 91.2806 100.734 90.9681 100.617C90.5189 100.461 90.265 100.48 89.6986 100.754C88.8588 101.184 88.5267 102.043 88.8783 102.922C89.015 103.234 92.1986 106.574 95.9877 110.344C101.066 115.402 103.097 117.297 103.742 117.59C104.933 118.137 106.847 118.137 108.038 117.59C109.328 117.023 116.886 109.465 117.531 108.137C118.136 106.867 118.156 105.012 117.589 103.742C117.296 103.078 114.679 100.344 106.515 92.1992C96.847 82.5508 95.7338 81.4961 94.8744 81.2031C93.8002 80.8516 92.433 80.793 91.515 81.0664C90.9095 81.2422 90.8314 81.1641 86.5541 76.8867L82.1791 72.5117L82.9213 71.3203C89.9916 59.875 89.7181 44.9922 82.2572 33.625C77.8627 26.9258 70.9095 21.75 63.2142 19.4258C59.8939 18.4297 57.9799 18.1562 53.7416 18.0976C51.5345 18.0586 49.3861 18.0781 48.9564 18.1172ZM85.8314 85.8125L83.5267 88.1172L79.5033 84.0937L75.4799 80.0703L77.7455 77.7852L80.0111 75.4805L84.0541 79.5039L88.1166 83.5273L85.8314 85.8125Z" fill="white"/>
<path d="M49.0932 24.8359C38.4878 26.3203 29.5034 33.7617 26.105 43.8789C25.187 46.5742 24.8354 48.6055 24.6987 51.7305C24.562 55.0703 24.7768 57.2773 25.5385 60.1484C26.769 64.875 29.0737 68.9961 32.4917 72.5898C34.269 74.4648 34.3862 74.543 35.187 74.543C36.2221 74.543 36.9448 73.8203 36.9448 72.7656C36.9448 72.1797 36.7104 71.8281 35.1479 70.1875C30.3237 65.0703 27.9604 58.8984 28.2143 52.082C28.3315 49.3672 28.644 47.5508 29.4253 45.2266C31.9448 37.6875 37.7846 31.8477 45.1479 29.4648C48.2339 28.4492 49.562 28.2539 53.0581 28.2539C57.3745 28.2539 60.187 28.8789 63.976 30.7148C64.8354 31.1445 65.7339 31.4766 65.9682 31.4766C66.2026 31.4766 66.6714 31.2422 67.0034 30.9687C67.6479 30.4219 67.8237 29.5039 67.4136 28.7227C66.9448 27.8633 61.8471 25.793 58.5073 25.1094C56.7104 24.7383 50.9682 24.582 49.0932 24.8359Z" fill="white"/>
<path d="M90.3239 28.2538C89.7575 28.6445 89.5036 29.4843 89.7184 30.2656C90.0309 31.4765 90.2848 31.496 99.152 31.4374L107.023 31.3788L107.531 30.9101C108.215 30.2656 108.234 29.1132 107.55 28.4492L107.082 27.9609H98.9176C92.0036 27.9609 90.6755 27.9999 90.3239 28.2538Z" fill="white"/>
<path d="M50.4219 31.5938C47.9805 32.2383 45.5195 34.0938 44.2891 36.2031C42.4336 39.4063 42.6094 43.9766 44.7188 47.0625L45.5195 48.2344L44.3086 48.8203C42.2969 49.8164 40.8125 51.5156 40.0703 53.625C39.7188 54.6406 39.6797 55.2656 39.6797 58.8203V62.8633L40.168 63.3125C40.8711 63.9766 41.8672 63.9375 42.5703 63.2539L43.0977 62.7266L43.1953 58.7617C43.2734 55.8906 43.3711 54.6797 43.5664 54.3281C44.1719 53.2539 44.7969 52.6094 45.7734 52.0625L46.8086 51.4961L52.5312 51.4375C57.3359 51.3789 58.4102 51.418 59.3281 51.6914C60.5586 52.043 61.7695 53.0391 62.3945 54.211C62.8047 54.9727 62.8242 55.2656 62.8828 61.4961L62.9414 68H56.7695H50.5977L50.1289 68.4883C49.4844 69.1133 49.4844 70.1289 50.1094 70.8711L50.5781 71.418L57.6094 71.4766C65.3242 71.5352 65.8516 71.4766 66.2422 70.4414C66.3594 70.1289 66.4375 67.0039 66.4375 62.6485C66.4375 56.7305 66.3789 55.168 66.1445 54.2305C65.4609 51.6133 63.4492 49.4063 60.9102 48.4883L60.3828 48.2735L61.1641 47.2578C63.4883 44.211 63.6836 39.5625 61.6523 36.086C60.9297 34.8555 59.1719 33.1758 57.8828 32.4922C55.6758 31.3399 52.7266 30.9883 50.4219 31.5938ZM55.7148 35.4219C57.5508 36.2813 58.8008 37.8047 59.3281 39.875C60.5195 44.543 55.9492 48.9766 51.3203 47.6485C49.3477 47.082 47.4727 45.3242 46.8086 43.4102C46.4375 42.2969 46.4375 40.3828 46.8086 39.2695C48.0586 35.6563 52.2969 33.8399 55.7148 35.4219Z" fill="white"/>
<path d="M90.9289 36.3008C89.718 36.5352 89.2102 38.293 90.0891 39.2109L90.5188 39.6797H98.8H107.081L107.55 39.1914C108.195 38.5664 108.195 37.5508 107.57 36.8086L107.101 36.2617L99.2102 36.2422C94.8938 36.2227 91.1438 36.2422 90.9289 36.3008Z" fill="white"/>
<path d="M77.7076 44.9531C77.024 45.5 76.9459 46.0664 77.2974 47.7266C79.3091 57.1602 75.6763 67.082 68.0982 72.7852C63.899 75.9297 59.7193 77.4336 53.938 77.8633C52.8052 77.9609 52.1607 78.0977 51.9068 78.3125C50.9498 79.1914 51.1451 80.7148 52.2974 81.2031C53.0591 81.5156 55.0123 81.4375 57.942 80.9688C67.5709 79.3867 75.8716 72.6094 79.4459 63.4102C81.4185 58.3711 81.8873 52.5508 80.7935 47.2969C80.3638 45.2656 80.3834 45.2656 79.7388 44.8945C78.9966 44.4648 78.313 44.4648 77.7076 44.9531Z" fill="white"/>
<path d="M97.1991 44.7969C96.1834 45.3828 95.9881 46.7891 96.8084 47.5898L97.2772 48.0781H102.14H107.004L107.531 47.5898C108.39 46.7891 108.195 45.3633 107.121 44.7969C106.535 44.4844 97.7459 44.4844 97.1991 44.7969Z" fill="white"/>
<path d="M96.8086 53.4493C96.1836 54.0548 96.1445 55.2266 96.7109 55.8516C97.2773 56.4376 97.8828 56.5157 102.707 56.4376C106.984 56.379 107.043 56.379 107.531 55.9102C108.215 55.2657 108.234 54.1134 107.551 53.4493L107.082 52.961H102.18H97.2773L96.8086 53.4493Z" fill="white"/>
<path d="M53.4688 56.7891C52.7656 57.4922 52.7656 58.5664 53.4688 59.2305C53.9375 59.6797 54.0938 59.6992 56.3984 59.6992C58.6445 59.6992 58.8398 59.6602 59.25 59.25C59.875 58.6445 59.8555 57.4531 59.2305 56.7891C58.7617 56.3008 58.6641 56.2812 56.3789 56.2812C54.0547 56.2812 53.9766 56.3008 53.4688 56.7891Z" fill="white"/>
<path d="M93.4883 60.0898C93.1562 60.4023 93 60.7734 93 61.2422C93 63.0391 93.2539 63.1172 99.4453 63.1172H104.523V64.6797V66.2422H99.4453C93.2539 66.2422 93 66.3203 93 68.1172C93 68.6055 93.1562 68.9375 93.5078 69.2695L94.0352 69.7578H99.7383C105.324 69.7578 105.461 69.7578 106.301 69.3086C106.828 69.0156 107.316 68.5664 107.59 68.0781C107.98 67.3945 108.039 67.043 108.039 64.6797C108.039 61.5156 107.746 60.7734 106.281 60.0312C105.441 59.6211 105.246 59.6016 99.6797 59.6016H93.957L93.4883 60.0898Z" fill="white"/>
<path d="M43.4883 68.3906C43.293 68.6055 40.2656 73.8008 36.75 79.9531L30.3633 91.1445L28.5273 91.2422C26.3398 91.3789 25.2461 91.8086 24.2305 92.9414C22.9805 94.3281 22.9805 94.25 22.9805 104.719C22.9805 113.918 23 114.211 23.3906 115.07C23.8984 116.164 24.875 117.16 25.9102 117.629C26.6523 117.98 27.7266 118 46.3398 118H65.9688L66.9844 117.492C69.0938 116.437 69.7578 115.012 69.7578 111.457C69.7578 109.367 69.6992 108.996 69.3672 108.586C68.8789 107.961 68.0977 107.805 67.2578 108.137C66.418 108.508 66.2422 109.055 66.2422 111.477C66.2422 113.391 66.2031 113.566 65.7539 113.996L65.2852 114.484H46.3594C27.7266 114.484 27.4336 114.484 27.0234 114.094C26.8086 113.879 26.5547 113.41 26.4961 113.078C26.4375 112.727 26.3984 108.664 26.4375 104.074L26.4961 95.6953L27.043 95.2266C27.5508 94.7969 27.7461 94.7578 29.7383 94.7578C30.9297 94.7578 32.0625 94.6797 32.2578 94.5625C32.4531 94.4648 34.9336 90.3242 37.7656 85.3633L42.9023 76.3789L43 85.2266C43.0586 90.0898 43.1367 94.0937 43.1562 94.1133C43.1758 94.1328 43.4492 94.2891 43.7812 94.4648C44.2695 94.7187 45.793 94.7578 54.6016 94.7578C61.7109 94.7578 65.0117 94.8164 65.3242 94.9727C66.0469 95.3047 66.2422 95.9492 66.2422 98.0977C66.2422 100.676 66.6133 101.379 68 101.379C69.4453 101.379 69.7578 100.715 69.7578 97.6484C69.7578 95.5391 69.6992 95.1289 69.2891 94.2695C68.7617 93.1367 68.0195 92.3359 66.9258 91.75C66.1641 91.3398 65.9492 91.3398 56.3398 91.2812L46.5156 91.2227L46.4766 80.1094L46.418 69.0156L45.9492 68.5078C45.3438 67.8633 44.0352 67.7852 43.4883 68.3906Z" fill="white"/>
<path d="M35.0894 100.148C34.4449 100.832 34.4449 101.789 35.0699 102.511L35.5386 103.058L41.6714 103.117C48.6441 103.195 49.1128 103.136 49.562 102.062C49.8941 101.281 49.7769 100.715 49.1909 100.07C48.8003 99.6403 48.7808 99.6403 42.1792 99.6403H35.5581L35.0894 100.148Z" fill="white"/>
<path d="M53.4488 100.129C52.8042 100.754 52.8042 101.769 53.4292 102.512L53.898 103.058L57.687 103.117C61.0074 103.156 61.5347 103.137 62.1206 102.824C63.2339 102.238 63.4097 100.89 62.4917 100.031C62.1011 99.66 61.8081 99.6405 57.9995 99.6405C53.937 99.6405 53.9175 99.6405 53.4488 100.129Z" fill="white"/>
<path d="M31.7888 106.789C31.1248 107.473 31.1052 108.41 31.7498 109.152L32.2185 109.699H38.0193H43.8201L44.2888 109.152C44.9334 108.41 44.9138 107.473 44.2498 106.789L43.7224 106.281H38.0193H32.3162L31.7888 106.789Z" fill="white"/>
<path d="M48.5073 106.711C47.9214 107.355 47.8042 108.078 48.1558 108.781C48.644 109.718 49.1909 109.836 53.312 109.757C56.9448 109.699 57.0425 109.679 57.5308 109.23C58.2144 108.586 58.2339 107.433 57.5503 106.769C57.0815 106.281 57.062 106.281 52.9995 106.281C49.0347 106.281 48.9175 106.3 48.5073 106.711Z" fill="white"/>
</g>
<defs>
<clipPath id="clip0_301_937">
<rect width="100" height="100" fill="white" transform="translate(18 18)"/>
</clipPath>
</defs>
</svg>