<svg width="100" height="100" viewBox="0 0 100 100" fill="none" xmlns="http://www.w3.org/2000/svg">
<rect x="0.735294" y="0.735294" width="98.5294" height="98.5294" rx="5.14706" fill="#E1CD97"/>
<rect x="0.735294" y="0.735294" width="98.5294" height="98.5294" rx="5.14706" stroke="black" stroke-width="1.47059"/>
<g clip-path="url(#clip0_230_9941)">
<path d="M35.9981 13.3219C35.6821 13.365 34.763 13.5229 33.9444 13.6809C27.5106 14.9591 21.7374 18.7073 17.9317 24.0641C16.1365 26.606 14.5568 30.1389 13.8243 33.2409C13.2212 35.7828 13.0632 39.7322 13.4653 42.5613C14.2265 48.1766 16.7828 53.2604 20.8613 57.2959C21.6799 58.1145 22.5416 58.89 22.7714 59.0049C23.6905 59.4932 24.825 58.7608 24.6671 57.7698C24.6096 57.3821 24.2362 56.9369 22.8863 55.6013C19.7268 52.4849 17.6588 49.0095 16.5386 44.9453C14.9445 39.1146 15.8349 32.451 18.9226 27.2235C24.0783 18.4919 34.1742 14.0687 43.9685 16.2516C51.9103 18.018 58.459 23.9635 60.9866 31.6612C62.8679 37.4056 62.4945 43.3799 59.9095 48.8228C57.583 53.72 53.9639 57.3821 49.0668 59.7804C45.7062 61.4176 42.3314 62.1931 38.4682 62.2075C37.3193 62.2075 37.1757 62.2362 36.8597 62.5665C36.3858 63.026 36.3858 63.7728 36.8454 64.3186C37.1757 64.6919 37.2762 64.7207 38.5544 64.7638C42.7766 64.9217 47.9035 63.6005 51.8385 61.3314L53.3464 60.4554L57.0229 64.1175C60.8717 67.9519 61.1876 68.1817 61.9488 67.8083C62.1355 67.7078 63.5429 66.3722 65.0939 64.8499C67.6358 62.3223 67.9374 62.0638 68.3826 62.0638C68.8422 62.0638 69.4022 62.5809 76.5254 69.7184C83.6629 76.8415 84.1799 77.4016 84.1799 77.8612C84.1799 78.3064 83.9214 78.608 81.279 81.2648C78.6078 83.9503 78.3349 84.1801 77.8754 84.1801C77.4014 84.1801 77.028 83.8498 72.3319 79.1681C69.5746 76.3963 67.1188 74.0698 66.889 73.9837C66.5587 73.8688 66.372 73.8831 65.9555 74.0842C65.338 74.4001 65.0939 75.032 65.3524 75.6783C65.4529 75.9081 67.7938 78.3638 70.5799 81.1355C74.3138 84.8551 75.8073 86.2481 76.2813 86.4636C77.1573 86.8657 78.5647 86.8657 79.4407 86.4636C80.3886 86.0471 85.9464 80.4893 86.4203 79.5127C86.8655 78.5792 86.8798 77.2149 86.4634 76.2815C86.2479 75.7932 84.3235 73.7826 78.3206 67.794C71.2118 60.6995 70.3932 59.924 69.7613 59.7086C68.9714 59.4501 67.9661 59.407 67.2911 59.6081C66.8459 59.7373 66.7885 59.6799 63.6434 56.5348L60.4265 53.3179L60.9722 52.4418C66.171 44.0262 65.9699 33.0829 60.4839 24.7247C57.2527 19.7988 52.1401 15.9931 46.4817 14.2841C44.0403 13.5517 42.6329 13.3506 39.5166 13.3075C37.8937 13.2788 36.314 13.2932 35.9981 13.3219ZM63.112 63.0979L61.4174 64.7925L58.459 61.8341L55.5006 58.8757L57.1665 57.1954L58.8324 55.5008L61.8052 58.4592L64.7923 61.4176L63.112 63.0979Z" fill="currentColor"/>
<path d="M36.0983 18.2617C28.3002 19.3532 21.694 24.8248 19.1952 32.2639C18.5202 34.2458 18.2617 35.7393 18.1612 38.0371C18.0606 40.4929 18.2186 42.1157 18.7787 44.2268C19.6834 47.7022 21.3781 50.7325 23.8913 53.3749C25.1982 54.7536 25.2843 54.811 25.8731 54.811C26.6343 54.811 27.1656 54.2797 27.1656 53.5042C27.1656 53.0733 26.9933 52.8148 25.8444 51.6085C22.2972 47.8458 20.5595 43.3077 20.7462 38.2956C20.8323 36.2994 21.0621 34.9638 21.6366 33.2549C23.4892 27.7114 27.7832 23.4174 33.1973 21.6654C35.4664 20.9186 36.443 20.775 39.0136 20.775C42.1875 20.775 44.2555 21.2345 47.0416 22.5845C47.6735 22.9004 48.3341 23.1446 48.5064 23.1446C48.6787 23.1446 49.0234 22.9722 49.2675 22.7712C49.7415 22.369 49.8707 21.6941 49.5691 21.1196C49.2245 20.4877 45.4762 18.9654 43.0204 18.4628C41.6992 18.1899 37.477 18.075 36.0983 18.2617Z" fill="currentColor"/>
<path d="M66.415 20.7755C65.9986 21.0628 65.8119 21.6803 65.9698 22.2548C66.1996 23.1451 66.3863 23.1595 72.9063 23.1164L78.6939 23.0733L79.0673 22.7287C79.5699 22.2548 79.5843 21.4074 79.0816 20.9192L78.737 20.5601H72.734C67.6501 20.5601 66.6735 20.5889 66.415 20.7755Z" fill="currentColor"/>
<path d="M37.0754 23.2308C35.2803 23.7047 33.4708 25.069 32.566 26.62C31.2017 28.9753 31.3309 32.3358 32.882 34.6049L33.4708 35.4665L32.5804 35.8974C31.1012 36.6298 30.0097 37.8792 29.464 39.4302C29.2055 40.177 29.1768 40.6366 29.1768 43.2503V46.2231L29.5358 46.5534C30.0528 47.0417 30.7852 47.013 31.3022 46.5103L31.69 46.1226L31.7618 43.2072C31.8192 41.0961 31.891 40.2058 32.0346 39.9472C32.4798 39.1574 32.9394 38.6835 33.6575 38.2813L34.4186 37.8649L38.6264 37.8218C42.1593 37.7787 42.9492 37.8074 43.6241 38.0085C44.5289 38.267 45.4193 38.9994 45.8788 39.8611C46.1804 40.4212 46.1948 40.6366 46.2379 45.2178L46.281 50.0001H41.7428H37.2047L36.86 50.3591C36.3861 50.8187 36.3861 51.5655 36.8456 52.1112L37.1903 52.5133L42.3604 52.5564C48.033 52.5995 48.4208 52.5564 48.708 51.7953C48.7942 51.5655 48.8516 49.2677 48.8516 46.0651C48.8516 41.7137 48.8085 40.5648 48.6362 39.8754C48.1336 37.951 46.6544 36.3282 44.7874 35.6532L44.3996 35.4953L44.9741 34.7485C46.6831 32.5081 46.8267 29.0902 45.3331 26.5339C44.8018 25.6291 43.5092 24.3941 42.5614 23.8914C40.9386 23.0441 38.77 22.7856 37.0754 23.2308ZM40.9673 26.0456C42.3173 26.6775 43.2364 27.7977 43.6241 29.32C44.5002 32.7523 41.1396 36.0123 37.736 35.0357C36.2856 34.6192 34.9069 33.3267 34.4186 31.9193C34.1457 31.1007 34.1457 29.6933 34.4186 28.8748C35.3377 26.2179 38.4541 24.8823 40.9673 26.0456Z" fill="currentColor"/>
<path d="M66.86 26.6918C65.9696 26.8641 65.5962 28.1566 66.2424 28.8316L66.5584 29.1763H72.6475H78.7367L79.0813 28.8172C79.5553 28.3577 79.5553 27.6109 79.0957 27.0652L78.751 26.6631L72.9491 26.6487C69.7753 26.6343 67.0179 26.6487 66.86 26.6918Z" fill="currentColor"/>
<path d="M57.1391 33.0544C56.6365 33.4565 56.579 33.873 56.8375 35.0937C58.3167 42.0302 55.6455 49.3257 50.0734 53.5191C46.9857 55.8313 43.9124 56.9371 39.6615 57.253C38.8286 57.3249 38.3546 57.4254 38.1679 57.5834C37.4642 58.2296 37.6079 59.3498 38.4552 59.7088C39.0153 59.9386 40.4514 59.8811 42.6056 59.5365C49.6856 58.3732 55.7892 53.3899 58.4173 46.6257C59.8677 42.9206 60.2124 38.6409 59.4082 34.7777C59.0922 33.2842 59.1066 33.2842 58.6327 33.0113C58.0869 32.6954 57.5843 32.6954 57.1391 33.0544Z" fill="currentColor"/>
<path d="M71.4703 32.9394C70.7235 33.3702 70.5799 34.4042 71.1831 34.993L71.5277 35.3521H75.1037H78.6796L79.0674 34.993C79.6993 34.4042 79.5556 33.3558 78.7658 32.9394C78.3349 32.7096 71.8724 32.7096 71.4703 32.9394Z" fill="currentColor"/>
<path d="M71.1839 39.3012C70.7243 39.7464 70.6956 40.6081 71.1121 41.0676C71.5285 41.4985 71.9737 41.5559 75.5209 41.4985C78.666 41.4554 78.7091 41.4554 79.0682 41.1107C79.5708 40.6368 79.5852 39.7895 79.0825 39.3012L78.7379 38.9422H75.1332H71.5285L71.1839 39.3012Z" fill="currentColor"/>
<path d="M39.3155 41.7572C38.7985 42.2742 38.7985 43.064 39.3155 43.5523C39.6602 43.8826 39.775 43.897 41.4697 43.897C43.1212 43.897 43.2648 43.8683 43.5664 43.5667C44.026 43.1215 44.0116 42.2454 43.552 41.7572C43.2074 41.3981 43.1356 41.3838 41.4553 41.3838C39.7463 41.3838 39.6889 41.3981 39.3155 41.7572Z" fill="currentColor"/>
<path d="M68.7418 44.1842C68.4977 44.4139 68.3828 44.6868 68.3828 45.0315C68.3828 46.3527 68.5695 46.4102 73.122 46.4102H76.8559V47.5591V48.708H73.122C68.5695 48.708 68.3828 48.7654 68.3828 50.0866C68.3828 50.4457 68.4977 50.6898 68.7562 50.9339L69.144 51.293H73.3374C77.4447 51.293 77.5453 51.293 78.1628 50.9627C78.5506 50.7472 78.9096 50.4169 79.1106 50.0579C79.3979 49.5553 79.4409 49.2968 79.4409 47.5591C79.4409 45.2325 79.2255 44.6868 78.1484 44.1411C77.5309 43.8395 77.3873 43.8251 73.2943 43.8251H69.0865L68.7418 44.1842Z" fill="currentColor"/>
<path d="M31.9777 50.2877C31.8341 50.4456 29.6081 54.2657 27.0231 58.7895L22.327 67.0185L20.977 67.0903C19.3686 67.1908 18.5643 67.5067 17.8176 68.3397C16.8984 69.3593 16.8984 69.3019 16.8984 76.9995C16.8984 83.7636 16.9128 83.9791 17.2 84.611C17.5734 85.4152 18.2915 86.1476 19.0526 86.4923C19.5983 86.7508 20.3882 86.7651 34.0744 86.7651H48.5075L49.2543 86.3917C50.8053 85.6162 51.2935 84.5679 51.2935 81.9541C51.2935 80.4175 51.2505 80.1446 51.0063 79.843C50.6473 79.3835 50.0728 79.2686 49.4553 79.5127C48.8378 79.7856 48.7085 80.1877 48.7085 81.9685C48.7085 83.3759 48.6798 83.5051 48.3495 83.8211L48.0048 84.1801H34.0888C20.3882 84.1801 20.1728 84.1801 19.8712 83.8929C19.7132 83.7349 19.5265 83.3903 19.4835 83.1461C19.4404 82.8876 19.4116 79.9005 19.4404 76.5256L19.4835 70.3646L19.8856 70.02C20.259 69.704 20.4026 69.6753 21.8674 69.6753C22.7435 69.6753 23.5764 69.6178 23.72 69.5317C23.8636 69.4599 25.6875 66.4153 27.7699 62.7675L31.5469 56.1614L31.6187 62.667C31.6618 66.243 31.7192 69.187 31.7336 69.2014C31.7479 69.2157 31.949 69.3306 32.1931 69.4599C32.5522 69.6466 33.6723 69.6753 40.1492 69.6753C45.3767 69.6753 47.8038 69.7184 48.0335 69.8333C48.5649 70.0774 48.7085 70.5513 48.7085 72.1311C48.7085 74.0267 48.9814 74.5437 50.001 74.5437C51.0638 74.5437 51.2935 74.0555 51.2935 71.8008C51.2935 70.2497 51.2505 69.9482 50.9489 69.3163C50.5611 68.4833 50.0154 67.8945 49.2112 67.4637C48.6511 67.1621 48.4931 67.1621 41.4274 67.119L34.2037 67.0759L34.175 58.9044L34.1319 50.7472L33.7872 50.3738C33.342 49.8999 32.3798 49.8425 31.9777 50.2877Z" fill="currentColor"/>
<path d="M25.8016 73.639C25.3277 74.1416 25.3277 74.8453 25.7872 75.3767L26.1319 75.7788L30.6413 75.8219C35.7683 75.8793 36.1129 75.8362 36.4433 75.0464C36.6874 74.4719 36.6012 74.0554 36.1704 73.5815C35.8832 73.2656 35.8688 73.2656 31.0147 73.2656H26.1463L25.8016 73.639Z" fill="currentColor"/>
<path d="M39.3016 73.6244C38.8277 74.0839 38.8277 74.8307 39.2872 75.3764L39.6319 75.7786L42.418 75.8216C44.8594 75.8504 45.2471 75.836 45.678 75.6062C46.4966 75.1754 46.6258 74.1845 45.9508 73.5526C45.6636 73.2797 45.4482 73.2653 42.6478 73.2653C39.6606 73.2653 39.6463 73.2653 39.3016 73.6244Z" fill="currentColor"/>
<path d="M23.3744 78.5213C22.8861 79.024 22.8717 79.7133 23.3457 80.259L23.6903 80.6611H27.9556H32.2209L32.5656 80.259C33.0395 79.7133 33.0251 79.024 32.5368 78.5213L32.1491 78.1479H27.9556H23.7621L23.3744 78.5213Z" fill="currentColor"/>
<path d="M35.6676 78.4642C35.2367 78.9381 35.1506 79.4695 35.4091 79.9865C35.7681 80.6759 36.1702 80.762 39.2004 80.7046C41.8716 80.6615 41.9434 80.6471 42.3025 80.3168C42.8051 79.8429 42.8195 78.9956 42.3168 78.5073C41.9722 78.1483 41.9578 78.1483 38.9707 78.1483C36.0553 78.1483 35.9692 78.1626 35.6676 78.4642Z" fill="currentColor"/>
</g>
<defs>
<clipPath id="clip0_230_9941">
<rect width="73.5294" height="73.5294" fill="white" transform="translate(13.2354 13.2354)"/>
</clipPath>
</defs>
</svg>
