<svg width="136" height="136" viewBox="0 0 136 136" fill="none" xmlns="http://www.w3.org/2000/svg">
<rect x="1" y="1" width="134" height="134" rx="7" fill="#F55C7B"/>
<rect x="1" y="1" width="134" height="134" rx="7" stroke="white" stroke-width="2"/>
<g clip-path="url(#clip0_301_957)">
<path d="M20.7734 18.5078C19.6602 19.0547 18.8984 19.8555 18.3711 21.0273C18.0391 21.75 18 22.5117 18 30.3047C18 36.6719 18.0586 38.8789 18.2344 39.0547C18.4102 39.2305 20.4414 39.2891 26.2031 39.2891C33.4688 39.2891 33.9766 39.2695 34.2695 38.9375C34.6797 38.4883 34.6797 38.1367 34.2891 37.5703L33.9961 37.1406H27.0625H20.1484V29.9531C20.1484 22.8047 20.1484 22.7461 20.5977 21.9062C20.9102 21.3203 21.3203 20.9102 21.9062 20.5977L22.7461 20.1484H67.9805H113.234L114.094 20.5781C114.738 20.9102 115.09 21.2617 115.402 21.9062C115.852 22.7461 115.852 22.9023 115.852 29.9531V37.1406L85.5391 37.1797L55.207 37.2383L55.0312 37.7656C54.8945 38.1172 54.9141 38.4492 55.0703 38.8008L55.3047 39.2891H86.418C110.363 39.2891 117.59 39.2305 117.766 39.0547C117.941 38.8789 118 36.6719 118 30.3242C118 22.5117 117.961 21.75 117.629 21.0273C117.102 19.8555 116.34 19.0547 115.227 18.5078L114.211 18H68H21.7891L20.7734 18.5078Z" fill="white"/>
<path d="M26.3984 25.0699C25.9297 25.3238 25.2656 25.8512 24.9531 26.2613C24.3867 26.9644 24.3477 27.1207 24.3477 28.6441C24.3477 30.1676 24.3867 30.3238 24.9531 31.0269C25.2656 31.4371 25.9297 31.9644 26.3984 32.1988L27.2578 32.648H45.2852C65.1875 32.648 64.0742 32.7066 65.4219 31.4176C67.3359 29.5621 66.6719 26.1246 64.1914 25.0113C63.4492 24.6597 62.3945 24.6402 45.3437 24.6402H27.2578L26.3984 25.0699ZM63.7227 27.5504C64.4648 28.2926 64.4648 28.9957 63.7227 29.7379L63.1562 30.3043H45.3633H27.5898L27.0625 29.8355C26.6523 29.484 26.5156 29.2105 26.5156 28.6441C26.5156 28.0777 26.6523 27.8043 27.0625 27.4527L27.5898 26.984H45.3633H63.1562L63.7227 27.5504Z" fill="white"/>
<path d="M85.1683 25.0894C83.9378 25.7339 83.2347 26.8472 83.098 28.273C83.0199 29.2691 83.0784 29.5621 83.5667 30.4996C84.0159 31.3589 84.3284 31.6714 85.1683 32.1011C86.4769 32.7847 87.5316 32.8043 88.8206 32.1597C90.4417 31.3589 91.2425 29.7769 90.9691 27.9214C90.5785 25.3043 87.5511 23.8394 85.1683 25.0894ZM88.2152 27.4722C89.2308 28.4879 88.4886 30.3043 87.0433 30.3043C86.1644 30.3043 85.3831 29.5035 85.3831 28.605C85.3831 27.1597 87.18 26.4175 88.2152 27.4722Z" fill="white"/>
<path d="M95.8314 25.0113C93.7416 25.9488 92.8627 28.4879 93.8978 30.5191C94.7181 32.1402 96.9252 33.0191 98.683 32.4332C100.402 31.8473 101.378 30.441 101.398 28.5855C101.398 25.6754 98.4877 23.8004 95.8314 25.0113ZM98.4095 27.2769C99.0345 27.7066 99.2494 28.5465 98.9564 29.2691C98.4681 30.441 97.2181 30.6559 96.3002 29.7379C95.597 29.0348 95.5775 28.3707 96.2416 27.5894C96.808 26.9059 97.7064 26.7691 98.4095 27.2769Z" fill="white"/>
<path d="M106.086 25.0707C105.618 25.3246 104.973 25.8519 104.641 26.2621C104.133 26.8871 104.035 27.2191 103.977 28.3324C103.879 29.8558 104.289 30.891 105.305 31.7308C107.219 33.3519 110.227 32.7074 111.379 30.4418C112.004 29.2308 111.848 27.2582 111.047 26.2621C110.285 25.2855 108.996 24.641 107.844 24.641C107.297 24.641 106.614 24.8168 106.086 25.0707ZM108.938 27.4535C110.071 28.4105 109.328 30.3051 107.844 30.3051C106.985 30.3051 106.203 29.5238 106.203 28.684C106.203 27.1801 107.805 26.4574 108.938 27.4535Z" fill="white"/>
<path d="M38.3714 37.6484C38.0784 38.1172 38.0784 38.2148 38.3323 38.6836L38.6253 39.1914L44.7385 39.25C49.094 39.2891 50.9495 39.2305 51.1253 39.0742C51.4573 38.8008 51.4768 37.6875 51.1643 37.375C50.9885 37.1992 49.3089 37.1406 44.8167 37.1406H38.7034L38.3714 37.6484Z" fill="white"/>
<path d="M18.332 41.457C18.0195 41.6328 18 43.5859 18 77.9414V114.211L18.5078 115.227C19.0547 116.34 19.8555 117.102 21.0273 117.629C21.7695 117.98 23.7227 118 68.0195 118H114.211L115.227 117.492C116.34 116.945 117.102 116.145 117.629 114.973C117.98 114.23 118 112.59 118 77.9219C118 42.2578 118 41.6523 117.629 41.4375C117.062 41.1445 116.535 41.2031 116.184 41.5938C115.871 41.9258 115.852 44.6992 115.852 77.5898V113.234L115.402 114.094C115.09 114.738 114.738 115.09 114.094 115.402L113.234 115.852H67.9805H22.7461L21.9062 115.402C21.3203 115.09 20.9102 114.68 20.5977 114.094L20.1484 113.254V77.5703C20.1484 43.2539 20.1289 41.8672 19.7969 41.5742C19.3867 41.2031 18.8398 41.1641 18.332 41.457Z" fill="white"/>
<path d="M26.7109 45.7539L26.2031 46.1445V57.3359C26.2031 67.1211 26.2422 68.5469 26.5156 68.9375L26.8086 69.3672H67.9805C107.609 69.3672 109.172 69.3477 109.465 69.0156C109.758 68.6836 109.797 67.5898 109.797 57.4336C109.797 48.0391 109.758 46.1445 109.523 45.8125C109.25 45.4414 108.566 45.4414 68.2344 45.3828L27.2383 45.3438L26.7109 45.7539ZM107.453 57.2383V66.8086L106.926 66.6328C106.613 66.5352 98.918 64.4648 89.7773 62.0234C80.6562 59.6016 73.0781 57.5508 72.9414 57.4727C72.8242 57.4141 77.2969 56.125 82.9023 54.6406C93.0586 51.9258 93.7422 51.7305 94.0156 51.3203C94.4648 50.6367 93.918 49.6406 93.0977 49.6406C92.8438 49.6406 87.1016 51.125 80.3438 52.9414L68.0391 56.2227L52.4336 52.0625C43.8594 49.7773 36.7109 47.8633 36.5547 47.8242C36.3984 47.7656 52.2773 47.7266 71.8672 47.707L107.453 47.6875V57.2383ZM46.1641 52.7852C55.5977 55.2852 63.2344 57.3945 63.1562 57.4727C63.0781 57.5312 56.2031 59.4062 47.8828 61.6133C39.5625 63.8398 31.8086 65.9102 30.6562 66.2227L28.5469 66.7891V57.4141C28.5469 49.9922 28.6055 48.0586 28.8008 48.1172C28.918 48.1758 36.75 50.2656 46.1641 52.7852ZM83.8789 62.8633L99.875 67.1211L83.9375 67.1797C75.168 67.1992 60.8516 67.1992 52.1016 67.1797L36.2031 67.1211L51.9453 62.8828C60.6172 60.5586 67.7461 58.6445 67.8047 58.6445C67.8633 58.625 75.0898 60.5195 83.8789 62.8633Z" fill="white"/>
<path d="M26.5938 75.8125C26.2227 76.1836 26.2031 76.457 26.2031 84.6992C26.2031 92.9414 26.2227 93.2148 26.5938 93.5859C26.9844 93.9766 27.2383 93.9766 37.6289 93.9766H48.293L48.7617 93.4883L49.25 93.0195V84.8555C49.25 80.3633 49.1914 76.4961 49.1328 76.2812C49.0742 76.0469 48.8008 75.7539 48.5469 75.6367C48.1953 75.4805 44.8945 75.4219 37.5313 75.4219C27.2383 75.4219 26.9844 75.4219 26.5938 75.8125ZM44.543 77.8438C44.5039 77.8828 42.9414 79.1133 41.0859 80.5586L37.707 83.2148L34.4453 80.6562C32.6484 79.2695 31.1055 78.0391 31.0078 77.9414C30.8906 77.8438 33.6055 77.7656 37.7266 77.7656C41.5156 77.7656 44.582 77.8047 44.543 77.8438ZM32.4141 82.043C35.0898 84.1328 35.7344 84.7188 35.5391 84.9141C35.1094 85.3047 28.7227 90.2656 28.625 90.2656C28.5859 90.2656 28.5469 87.7461 28.5469 84.6797C28.5469 80.2852 28.6055 79.1328 28.8008 79.25C28.918 79.3281 30.5586 80.5781 32.4141 82.043ZM46.9063 84.6992C46.9063 87.7656 46.8672 90.2656 46.8086 90.2656C46.5156 90.2656 39.6992 84.6992 39.8164 84.582C40.2461 84.1523 46.6328 79.1523 46.7695 79.1523C46.8477 79.1328 46.9063 81.6328 46.9063 84.6992ZM41.2617 88.9375L44.5625 91.5352L41.1445 91.5938C39.2695 91.6133 36.1836 91.6133 34.3086 91.5938L30.8906 91.5352L34.1719 88.957C35.9688 87.5312 37.5508 86.3789 37.6875 86.3789C37.8242 86.3594 39.4453 87.5312 41.2617 88.9375Z" fill="white"/>
<path d="M56.8672 75.8125C56.4961 76.1836 56.4766 76.457 56.4766 84.6992C56.4766 92.9414 56.4961 93.2148 56.8672 93.5859C57.2578 93.9766 57.5117 93.9766 68 93.9766C78.4883 93.9766 78.7422 93.9766 79.1328 93.5859C79.5039 93.2148 79.5234 92.9414 79.5234 84.6992C79.5234 76.457 79.5039 76.1836 79.1328 75.8125C78.7422 75.4219 78.4883 75.4219 68 75.4219C57.5117 75.4219 57.2578 75.4219 56.8672 75.8125ZM77.1797 84.6992V91.6328H68H58.8203V84.6992V77.7656H68H77.1797V84.6992Z" fill="white"/>
<path d="M87.4336 75.6562C87.2188 75.7734 86.9844 75.9688 86.9063 76.0859C86.8281 76.2031 86.75 80.1094 86.75 84.7383C86.75 92.9414 86.7695 93.2148 87.1406 93.5859C87.5313 93.9766 87.7852 93.9766 98.2734 93.9766C108.762 93.9766 109.016 93.9766 109.406 93.5859C109.777 93.2148 109.797 92.9414 109.797 84.6992C109.797 76.457 109.777 76.1836 109.406 75.8125C109.016 75.4219 108.762 75.4219 98.4297 75.4219C90.8906 75.4414 87.707 75.5 87.4336 75.6562ZM104.914 78.0195C100.266 81.6719 98.4492 83.0391 98.2734 83.0391C98.0977 83.0391 92.4531 78.7422 91.5547 77.9414C91.4375 77.8438 94.4258 77.7656 98.293 77.7656C103.762 77.7852 105.148 77.8242 104.914 78.0195ZM92.8047 81.8867C94.7383 83.4102 96.3203 84.6602 96.3203 84.6992C96.3203 84.7773 89.3086 90.2656 89.1914 90.2656C89.1328 90.2656 89.0938 87.7656 89.0938 84.6992C89.0938 81.6328 89.1328 79.1328 89.1914 79.1328C89.25 79.1328 90.8711 80.3633 92.8047 81.8867ZM107.453 84.7188C107.453 87.7852 107.375 90.2656 107.297 90.2266C106.848 90.0508 100.246 84.7188 100.344 84.6211C100.676 84.2695 107.18 79.1719 107.316 79.1523C107.395 79.1328 107.453 81.6523 107.453 84.7188ZM101.711 91.5938C99.8164 91.6133 96.7305 91.6133 94.8555 91.5938L91.457 91.5352L94.875 88.8594L98.3125 86.1836L101.73 88.8594L105.148 91.5352L101.711 91.5938Z" fill="white"/>
<path d="M26.5156 100.461C26.2617 100.832 26.2031 101.594 26.2031 104.953C26.2031 108.762 26.2227 109.035 26.5938 109.406C26.9844 109.797 27.2383 109.797 68 109.797C108.762 109.797 109.016 109.797 109.406 109.406C109.777 109.035 109.797 108.762 109.797 104.953C109.797 101.594 109.738 100.832 109.484 100.461L109.191 100.031H68H26.8086L26.5156 100.461ZM107.453 104.816V107.453H68H28.5469V104.816V102.18H68H107.453V104.816Z" fill="white"/>
</g>
<defs>
<clipPath id="clip0_301_957">
<rect width="100" height="100" fill="white" transform="translate(18 18)"/>
</clipPath>
</defs>
</svg>
