<svg width="42" height="42" viewBox="0 0 42 42" fill="none" xmlns="http://www.w3.org/2000/svg">
<path d="M0 8.4C0 3.76081 3.76081 0 8.4 0H42V33.6C42 38.2392 38.2392 42 33.6 42H0V8.4Z" fill="#181818"/>
<path d="M18.4035 20.2211H18.2287L18.6172 20.0075C19.4228 19.5924 20.052 18.9011 20.3897 18.0601C20.6956 17.1783 20.7763 16.234 20.6244 15.3131C20.5338 14.4987 20.2257 13.7238 19.7324 13.0695C19.2391 12.4153 18.5788 11.9059 17.8208 11.5948C16.8375 11.17 15.7757 10.9577 14.7047 10.9716H4.8125V30.9696H13.8484C14.7092 30.9704 15.5685 30.899 16.4173 30.756C17.3441 30.6244 18.2232 30.2633 18.9749 29.7055C19.7267 29.1478 20.327 28.411 20.7216 27.5622C21.3115 26.3539 21.4823 24.9836 21.2072 23.6674C21.0909 22.8945 20.7694 22.167 20.2763 21.5605C19.7832 20.9541 19.1365 20.491 18.4035 20.2195V20.2211ZM9.50688 14.4584H13.4016C14.0589 14.4581 14.7135 14.543 15.3489 14.7109C15.6943 14.7924 16.0049 14.9815 16.2359 15.2509C16.4669 15.5203 16.6064 15.8561 16.6342 16.2099C16.714 16.6084 16.714 17.0189 16.6342 17.4175C16.5783 17.6426 16.4746 17.853 16.3302 18.0345C16.1858 18.2161 16.0041 18.3645 15.7973 18.4696C15.194 18.7723 14.5246 18.9192 13.85 18.897H9.46641L9.50688 14.4584ZM17.0422 25.6342C16.9545 26.1064 16.7186 26.5383 16.3687 26.8673C16.0188 27.1962 15.5731 27.405 15.0964 27.4634C14.673 27.5481 14.2428 27.5942 13.8111 27.601H9.46641V22.3045H14.1009C14.5984 22.3049 15.0922 22.3903 15.561 22.557C15.9785 22.6891 16.3449 22.9472 16.6098 23.2959C16.8747 23.6446 17.0252 24.0667 17.0405 24.5043C17.0913 24.8793 17.0913 25.2593 17.0405 25.6342H17.0422ZM37.1778 24.3295C37.1972 24.2907 37.1972 24.2518 37.1389 24.2907V22.1296C37.1192 21.1393 36.8932 20.1641 36.4752 19.2661C35.8427 17.9166 34.7333 16.8488 33.3608 16.2681C31.8509 15.6476 30.1919 15.4849 28.5903 15.8003C27.3736 15.9699 26.2332 16.4917 25.3093 17.3013C24.3855 18.111 23.7186 19.1732 23.3909 20.3571C22.8223 22.1739 22.7419 24.1084 23.1578 25.9661C23.3521 27.0139 23.838 27.9856 24.5596 28.7697C25.4798 29.7093 26.6371 30.3822 27.9088 30.7171C29.1327 31.0512 30.4142 31.1175 31.6659 30.9114C33.2394 30.7198 34.6879 29.9579 35.7371 28.7697C36.2589 28.2132 36.6514 27.5482 36.8864 26.8224C36.9974 26.6562 37.0456 26.4559 37.0224 26.2574H33.2054C33.1649 26.2541 33.1243 26.2636 33.0895 26.2845C33.0547 26.3054 33.0272 26.3367 33.0111 26.374C32.8202 26.7504 32.5453 27.0779 32.2076 27.3311C31.87 27.5842 31.4786 27.7564 31.0638 27.8341C30.4854 27.9525 29.889 27.9525 29.3107 27.8341C28.8138 27.7597 28.3427 27.5647 27.9386 27.2661C27.5345 26.9676 27.2097 26.5746 26.9926 26.1215C26.8219 25.7516 26.7105 25.3572 26.6624 24.9527V24.3295H37.1778ZM26.8955 21.5258C26.9813 21.2145 27.0856 20.9085 27.2079 20.6096C27.414 20.0993 27.7659 19.661 28.2196 19.3495C28.6733 19.038 29.2088 18.8671 29.7591 18.8581C30.3339 18.8035 30.9136 18.8833 31.4523 19.0912C31.9406 19.2782 32.3688 19.5946 32.691 20.0063C33.0132 20.4181 33.2173 20.9098 33.2815 21.4287V21.8366L26.8955 21.8949C26.8885 21.772 26.8885 21.6488 26.8955 21.5258ZM34.0423 11.7891H25.942V14.1265L34.0423 14.1071V11.7891Z" fill="white"/>
</svg>
