<svg width="42" height="42" viewBox="0 0 42 42" fill="none" xmlns="http://www.w3.org/2000/svg">
<path d="M0 0H33.6C38.2392 0 42 3.76081 42 8.4V42H8.4C3.76081 42 0 38.2392 0 33.6V0Z" fill="#181818"/>
<path d="M15.4875 7.87476H26.5125C30.7125 7.87476 34.125 11.2873 34.125 15.4873V26.5123C34.125 28.5312 33.323 30.4675 31.8954 31.8951C30.4677 33.3227 28.5315 34.1248 26.5125 34.1248H15.4875C11.2875 34.1248 7.875 30.7123 7.875 26.5123V15.4873C7.875 13.4683 8.67703 11.532 10.1046 10.1044C11.5323 8.67678 13.4685 7.87476 15.4875 7.87476ZM15.225 10.4998C13.9719 10.4998 12.77 10.9976 11.8839 11.8837C10.9978 12.7698 10.5 13.9716 10.5 15.2248V26.7748C10.5 29.3866 12.6131 31.4998 15.225 31.4998H26.775C28.0281 31.4998 29.23 31.0019 30.1161 30.1158C31.0022 29.2297 31.5 28.0279 31.5 26.7748V15.2248C31.5 12.6129 29.3869 10.4998 26.775 10.4998H15.225ZM27.8906 12.4685C28.3257 12.4685 28.743 12.6414 29.0507 12.949C29.3584 13.2567 29.5312 13.674 29.5312 14.1091C29.5312 14.5443 29.3584 14.9616 29.0507 15.2692C28.743 15.5769 28.3257 15.7498 27.8906 15.7498C27.4555 15.7498 27.0382 15.5769 26.7305 15.2692C26.4228 14.9616 26.25 14.5443 26.25 14.1091C26.25 13.674 26.4228 13.2567 26.7305 12.949C27.0382 12.6414 27.4555 12.4685 27.8906 12.4685ZM21 14.4373C22.7405 14.4373 24.4097 15.1287 25.6404 16.3594C26.8711 17.5901 27.5625 19.2593 27.5625 20.9998C27.5625 22.7402 26.8711 24.4094 25.6404 25.6401C24.4097 26.8709 22.7405 27.5623 21 27.5623C19.2595 27.5623 17.5903 26.8709 16.3596 25.6401C15.1289 24.4094 14.4375 22.7402 14.4375 20.9998C14.4375 19.2593 15.1289 17.5901 16.3596 16.3594C17.5903 15.1287 19.2595 14.4373 21 14.4373ZM21 17.0623C19.9557 17.0623 18.9542 17.4771 18.2158 18.2155C17.4773 18.9539 17.0625 19.9555 17.0625 20.9998C17.0625 22.044 17.4773 23.0456 18.2158 23.784C18.9542 24.5224 19.9557 24.9373 21 24.9373C22.0443 24.9373 23.0458 24.5224 23.7842 23.784C24.5227 23.0456 24.9375 22.044 24.9375 20.9998C24.9375 19.9555 24.5227 18.9539 23.7842 18.2155C23.0458 17.4771 22.0443 17.0623 21 17.0623Z" fill="white"/>
</svg>
