<svg width="42" height="42" viewBox="0 0 42 42" fill="none" xmlns="http://www.w3.org/2000/svg">
<path d="M0 0H33.6C38.2392 0 42 3.76081 42 8.4V42H8.4C3.76081 42 0 38.2392 0 33.6V0Z" fill="#181818"/>
<path fill-rule="evenodd" clip-rule="evenodd" d="M21.8244 15.8133V18.5603C22.3996 17.684 23.1926 16.9721 24.1255 16.4943C25.0585 16.0165 26.0996 15.7891 27.1468 15.8343C32.7396 15.8343 33.9488 19.3308 33.9488 23.8795V33.1404H28.7688V24.9301C28.7688 22.9714 28.3738 20.4526 25.3241 20.4526C22.3666 20.4526 21.8616 22.5845 21.8616 24.7844V33.1404H16.6978V15.8133H21.8244ZM13.2288 11.4588C13.2282 11.972 13.0761 12.4735 12.7915 12.9006C12.507 13.3276 12.1028 13.6612 11.6295 13.8594C11.1564 14.0561 10.6354 14.1075 10.133 14.0072C9.63056 13.9069 9.16933 13.6594 8.808 13.2961C8.44599 12.9326 8.19953 12.4702 8.09962 11.9671C7.99971 11.4639 8.0508 10.9424 8.24647 10.4682C8.44214 9.994 8.77366 9.58823 9.19933 9.30192C9.625 9.01562 10.1258 8.86156 10.6388 8.85913C10.9797 8.85913 11.3173 8.92644 11.6322 9.05721C11.9471 9.18797 12.233 9.37962 12.4737 9.62115C12.7143 9.86269 12.9049 10.1494 13.0344 10.4647C13.164 10.7801 13.2301 11.1179 13.2288 11.4588Z" fill="white"/>
<path d="M13.2288 15.8344H8.04883V33.1404H13.2288V15.8344Z" fill="white"/>
</svg>
